<mxfile host="app.diagrams.net" modified="2023-05-23T09:38:57.258Z" agent="Mozilla/5.0 (Macintosh; Intel Mac OS X 10_15_7) AppleWebKit/537.36 (KHTML, like Gecko) Chrome/112.0.0.0 Safari/537.36 OPR/98.0.0.0" etag="_PkP_wLOIc75qOJiDJ7j" version="21.3.2" type="github">
  <diagram name="Page-1" id="gs0pLVagQkpj5RPHp093">
    <mxGraphModel dx="2092" dy="703" grid="1" gridSize="10" guides="1" tooltips="1" connect="1" arrows="1" fold="1" page="1" pageScale="1" pageWidth="827" pageHeight="1169" math="0" shadow="0">
      <root>
        <mxCell id="0" />
        <mxCell id="1" parent="0" />
        <mxCell id="32wc3V-l8G8s6lL-Zdti-8" value="" style="rounded=0;whiteSpace=wrap;html=1;rotation=-90;fillColor=none;strokeColor=#82b366;dashed=1;strokeWidth=3;" parent="1" vertex="1">
          <mxGeometry x="230" y="319.88" width="556.79" height="233.95" as="geometry" />
        </mxCell>
        <mxCell id="32wc3V-l8G8s6lL-Zdti-20" value="" style="ellipse;shape=cloud;whiteSpace=wrap;html=1;fillColor=none;strokeColor=#82b366;" parent="1" vertex="1">
          <mxGeometry x="398.39" y="319.88" width="220" height="210.12" as="geometry" />
        </mxCell>
        <mxCell id="G5m2Z7axFYdHdQ9XGcFq-4" value="" style="image;sketch=0;aspect=fixed;html=1;points=[];align=center;fontSize=12;image=img/lib/mscae/Docker.svg;" vertex="1" parent="1">
          <mxGeometry x="434" y="621.8000000000001" width="105.37" height="86.4" as="geometry" />
        </mxCell>
        <mxCell id="k795cpsEZ2L50x8XWClP-7" style="edgeStyle=orthogonalEdgeStyle;rounded=0;orthogonalLoop=1;jettySize=auto;html=1;exitX=1;exitY=0.5;exitDx=0;exitDy=0;fillColor=#a20025;strokeColor=#6F0000;strokeWidth=2;entryX=0.489;entryY=0.101;entryDx=0;entryDy=0;entryPerimeter=0;" parent="1" target="32wc3V-l8G8s6lL-Zdti-20" edge="1">
          <mxGeometry relative="1" as="geometry">
            <mxPoint x="360" y="302" as="targetPoint" />
            <Array as="points">
              <mxPoint x="506" y="302" />
            </Array>
            <mxPoint x="110" y="302" as="sourcePoint" />
          </mxGeometry>
        </mxCell>
        <mxCell id="k795cpsEZ2L50x8XWClP-1" value="" style="shape=datastore;whiteSpace=wrap;html=1;" parent="1" vertex="1">
          <mxGeometry x="50" y="283" width="60" height="60" as="geometry" />
        </mxCell>
        <mxCell id="32wc3V-l8G8s6lL-Zdti-23" style="edgeStyle=orthogonalEdgeStyle;rounded=0;orthogonalLoop=1;jettySize=auto;html=1;entryX=0.16;entryY=0.55;entryDx=0;entryDy=0;entryPerimeter=0;strokeWidth=2;strokeColor=#660033;" parent="1" source="k795cpsEZ2L50x8XWClP-2" target="32wc3V-l8G8s6lL-Zdti-20" edge="1">
          <mxGeometry relative="1" as="geometry">
            <Array as="points">
              <mxPoint x="50" y="435" />
            </Array>
          </mxGeometry>
        </mxCell>
        <mxCell id="k795cpsEZ2L50x8XWClP-2" value="" style="shape=datastore;whiteSpace=wrap;html=1;" parent="1" vertex="1">
          <mxGeometry x="20" y="353" width="60" height="60" as="geometry" />
        </mxCell>
        <mxCell id="k795cpsEZ2L50x8XWClP-9" style="edgeStyle=orthogonalEdgeStyle;rounded=0;orthogonalLoop=1;jettySize=auto;html=1;exitX=1;exitY=0.5;exitDx=0;exitDy=0;fillColor=#a20025;strokeColor=#6F0000;strokeWidth=2;entryX=0.25;entryY=0.25;entryDx=0;entryDy=0;entryPerimeter=0;" parent="1" edge="1">
          <mxGeometry relative="1" as="geometry">
            <mxPoint x="453.3899999999999" y="371.4100000000001" as="targetPoint" />
            <mxPoint x="150" y="372" as="sourcePoint" />
          </mxGeometry>
        </mxCell>
        <mxCell id="k795cpsEZ2L50x8XWClP-3" value="" style="shape=datastore;whiteSpace=wrap;html=1;" parent="1" vertex="1">
          <mxGeometry x="90" y="353" width="60" height="60" as="geometry" />
        </mxCell>
        <mxCell id="k795cpsEZ2L50x8XWClP-12" value="" style="image;aspect=fixed;html=1;points=[];align=center;fontSize=12;image=img/lib/azure2/other/Web_App_Database.svg;" parent="1" vertex="1">
          <mxGeometry x="-18.53" y="585" width="100" height="100" as="geometry" />
        </mxCell>
        <mxCell id="k795cpsEZ2L50x8XWClP-14" value="" style="ellipse;shape=cloud;whiteSpace=wrap;html=1;fillColor=none;" parent="1" vertex="1">
          <mxGeometry x="-91.47" y="426.65" width="261.47" height="283.35" as="geometry" />
        </mxCell>
        <mxCell id="k795cpsEZ2L50x8XWClP-13" value="" style="sketch=0;pointerEvents=1;shadow=0;dashed=0;html=1;strokeColor=none;fillColor=#434445;aspect=fixed;labelPosition=center;verticalLabelPosition=bottom;verticalAlign=top;align=center;outlineConnect=0;shape=mxgraph.vvd.on_demand_self_service;" parent="1" vertex="1">
          <mxGeometry x="-27.049999999999997" y="470" width="117.05" height="99.5" as="geometry" />
        </mxCell>
        <mxCell id="k795cpsEZ2L50x8XWClP-18" value="" style="image;aspect=fixed;html=1;points=[];align=center;fontSize=12;image=img/lib/azure2/iot/Stream_Analytics_Jobs.svg;" parent="1" vertex="1">
          <mxGeometry x="122" y="500.01" width="168" height="143.29" as="geometry" />
        </mxCell>
        <mxCell id="k795cpsEZ2L50x8XWClP-27" value="&lt;b&gt;External&lt;br&gt;Databases&lt;br&gt;for Sales history&lt;/b&gt;" style="text;html=1;strokeColor=none;fillColor=none;align=center;verticalAlign=middle;whiteSpace=wrap;rounded=0;" parent="1" vertex="1">
          <mxGeometry x="-70" y="313" width="140" height="30" as="geometry" />
        </mxCell>
        <mxCell id="k795cpsEZ2L50x8XWClP-28" value="&lt;b&gt;CRM&lt;/b&gt;" style="text;html=1;strokeColor=none;fillColor=none;align=center;verticalAlign=middle;whiteSpace=wrap;rounded=0;" parent="1" vertex="1">
          <mxGeometry x="-30" y="490" width="140" height="30" as="geometry" />
        </mxCell>
        <mxCell id="k795cpsEZ2L50x8XWClP-29" value="&lt;b&gt;Web Analytics&lt;/b&gt;" style="text;html=1;strokeColor=none;fillColor=none;align=center;verticalAlign=middle;whiteSpace=wrap;rounded=0;" parent="1" vertex="1">
          <mxGeometry x="20" y="600" width="140" height="30" as="geometry" />
        </mxCell>
        <mxCell id="k795cpsEZ2L50x8XWClP-30" value="&lt;b&gt;Event Tracking&lt;br&gt;Tool&lt;br&gt;&lt;/b&gt;" style="text;html=1;strokeColor=none;fillColor=none;align=center;verticalAlign=middle;whiteSpace=wrap;rounded=0;" parent="1" vertex="1">
          <mxGeometry x="160" y="650" width="140" height="30" as="geometry" />
        </mxCell>
        <mxCell id="G5m2Z7axFYdHdQ9XGcFq-9" style="edgeStyle=orthogonalEdgeStyle;rounded=0;orthogonalLoop=1;jettySize=auto;html=1;exitX=0.25;exitY=1;exitDx=0;exitDy=0;entryX=0;entryY=0.75;entryDx=0;entryDy=0;strokeColor=#007FFF;" edge="1" parent="1" source="32wc3V-l8G8s6lL-Zdti-7" target="G5m2Z7axFYdHdQ9XGcFq-5">
          <mxGeometry relative="1" as="geometry" />
        </mxCell>
        <mxCell id="32wc3V-l8G8s6lL-Zdti-7" value="" style="rounded=0;whiteSpace=wrap;html=1;rotation=-90;fillColor=none;dashed=1;strokeWidth=3;strokeColor=#b85450;" parent="1" vertex="1">
          <mxGeometry x="-180" y="238.51999999999998" width="552.43" height="397.78" as="geometry" />
        </mxCell>
        <mxCell id="32wc3V-l8G8s6lL-Zdti-11" value="" style="rounded=0;whiteSpace=wrap;html=1;rotation=-90;fillColor=none;dashed=1;strokeWidth=3;strokeColor=#6c8ebf;" parent="1" vertex="1">
          <mxGeometry x="550" y="319.88" width="556.79" height="233.95" as="geometry" />
        </mxCell>
        <mxCell id="32wc3V-l8G8s6lL-Zdti-29" style="edgeStyle=orthogonalEdgeStyle;rounded=0;orthogonalLoop=1;jettySize=auto;html=1;exitX=1;exitY=0.3;exitDx=0;exitDy=0;" parent="1" source="32wc3V-l8G8s6lL-Zdti-12" target="32wc3V-l8G8s6lL-Zdti-27" edge="1">
          <mxGeometry relative="1" as="geometry">
            <Array as="points">
              <mxPoint x="960" y="389" />
              <mxPoint x="960" y="320" />
              <mxPoint x="1090" y="320" />
            </Array>
          </mxGeometry>
        </mxCell>
        <mxCell id="32wc3V-l8G8s6lL-Zdti-30" style="edgeStyle=orthogonalEdgeStyle;rounded=0;orthogonalLoop=1;jettySize=auto;html=1;exitX=1;exitY=0.5;exitDx=0;exitDy=0;" parent="1" source="32wc3V-l8G8s6lL-Zdti-12" edge="1">
          <mxGeometry relative="1" as="geometry">
            <mxPoint x="1050" y="429.9749999999999" as="targetPoint" />
          </mxGeometry>
        </mxCell>
        <mxCell id="32wc3V-l8G8s6lL-Zdti-32" style="edgeStyle=orthogonalEdgeStyle;rounded=0;orthogonalLoop=1;jettySize=auto;html=1;exitX=1;exitY=0.7;exitDx=0;exitDy=0;" parent="1" edge="1">
          <mxGeometry relative="1" as="geometry">
            <mxPoint x="913.4000000000001" y="467.6690000000001" as="sourcePoint" />
            <mxPoint x="1090" y="577" as="targetPoint" />
            <Array as="points">
              <mxPoint x="913" y="507" />
              <mxPoint x="1090" y="507" />
              <mxPoint x="1090" y="571" />
            </Array>
          </mxGeometry>
        </mxCell>
        <mxCell id="32wc3V-l8G8s6lL-Zdti-12" value="" style="shape=datastore;html=1;labelPosition=center;verticalLabelPosition=bottom;align=center;verticalAlign=top;fillColor=none;strokeColor=#6c8ebf;strokeWidth=2;" parent="1" vertex="1">
          <mxGeometry x="743.4" y="328.24" width="170" height="203.47" as="geometry" />
        </mxCell>
        <mxCell id="32wc3V-l8G8s6lL-Zdti-13" value="" style="shape=cylinder3;whiteSpace=wrap;html=1;boundedLbl=1;backgroundOutline=1;size=15;fillColor=#fff2cc;strokeColor=#d6b656;" parent="1" vertex="1">
          <mxGeometry x="800" y="406" width="48.39" height="63" as="geometry" />
        </mxCell>
        <mxCell id="32wc3V-l8G8s6lL-Zdti-14" value="" style="shape=cylinder3;whiteSpace=wrap;html=1;boundedLbl=1;backgroundOutline=1;size=15;fillColor=#e1d5e7;strokeColor=#9673a6;" parent="1" vertex="1">
          <mxGeometry x="763" y="438" width="50" height="67" as="geometry" />
        </mxCell>
        <mxCell id="32wc3V-l8G8s6lL-Zdti-15" value="" style="shape=cylinder3;whiteSpace=wrap;html=1;boundedLbl=1;backgroundOutline=1;size=15;fillColor=#f8cecc;strokeColor=#b85450;" parent="1" vertex="1">
          <mxGeometry x="838" y="440" width="52" height="61" as="geometry" />
        </mxCell>
        <mxCell id="32wc3V-l8G8s6lL-Zdti-16" value="" style="shape=cylinder3;whiteSpace=wrap;html=1;boundedLbl=1;backgroundOutline=1;size=15;fillColor=#d5e8d4;strokeColor=#82b366;" parent="1" vertex="1">
          <mxGeometry x="803.4" y="463.75" width="51.6" height="62.25" as="geometry" />
        </mxCell>
        <mxCell id="32wc3V-l8G8s6lL-Zdti-18" value="&lt;b&gt;Data Warehouse&lt;/b&gt;" style="text;html=1;strokeColor=none;fillColor=none;align=center;verticalAlign=middle;whiteSpace=wrap;rounded=0;" parent="1" vertex="1">
          <mxGeometry x="763" y="340.07" width="140" height="30" as="geometry" />
        </mxCell>
        <mxCell id="32wc3V-l8G8s6lL-Zdti-19" value="&lt;b&gt;PySpark in &lt;br&gt;AWS Glue&lt;br&gt;&lt;/b&gt;" style="text;html=1;strokeColor=none;fillColor=none;align=center;verticalAlign=middle;whiteSpace=wrap;rounded=0;" parent="1" vertex="1">
          <mxGeometry x="424" y="353" width="140" height="30" as="geometry" />
        </mxCell>
        <mxCell id="32wc3V-l8G8s6lL-Zdti-24" style="edgeStyle=orthogonalEdgeStyle;rounded=0;orthogonalLoop=1;jettySize=auto;html=1;exitX=0.875;exitY=0.5;exitDx=0;exitDy=0;exitPerimeter=0;entryX=-0.002;entryY=0.471;entryDx=0;entryDy=0;entryPerimeter=0;fillColor=#d5e8d4;strokeColor=#82b366;strokeWidth=2;" parent="1" source="32wc3V-l8G8s6lL-Zdti-20" target="32wc3V-l8G8s6lL-Zdti-12" edge="1">
          <mxGeometry relative="1" as="geometry" />
        </mxCell>
        <mxCell id="32wc3V-l8G8s6lL-Zdti-26" value="" style="sketch=0;outlineConnect=0;fontColor=#232F3E;gradientColor=none;fillColor=#4D27AA;strokeColor=none;dashed=0;verticalLabelPosition=bottom;verticalAlign=top;align=center;html=1;fontSize=12;fontStyle=0;aspect=fixed;pointerEvents=1;shape=mxgraph.aws4.quicksight_paginated_reports;" parent="1" vertex="1">
          <mxGeometry x="1056.09" y="368.82" width="66.97" height="84.25" as="geometry" />
        </mxCell>
        <mxCell id="32wc3V-l8G8s6lL-Zdti-27" value="" style="shape=image;verticalLabelPosition=bottom;labelBackgroundColor=default;verticalAlign=top;aspect=fixed;imageAspect=0;image=data:image/png,iVBORw0KGgoAAAANSUhEUgAAAMkAAACCCAYAAADsWeyqAAABPmlDQ1BJQ0MgUHJvZmlsZQAAKJFjYGASSCwoyGFhYGDIzSspCnJ3UoiIjFJgf87AyiDKwM9gxsCRmFxc4BgQ4ANUwgCjUcG3awyMIPqyLsisSUtzJqks2DmVXXCC06zO7yaY6lEAV0pqcTKQ/gPEickFRSUMDIwJQLZyeUkBiN0CZIsUAR0FZM8AsdMh7DUgdhKEfQCsJiTIGci+AmQLJGckpgDZT4BsnSQk8XQkNtReEGD3cVdw83Ah4FIyQElqRQmIds4vqCzKTM8oUXAEhlCqgmdesp6OgpGBkTEDAyi8Iao/3wCHI6MYB0KsEOg/K08GBqZchFhCAAPDjg8gbyLEVHUYGHiOMzAciC1ILEqEO4DxG0txmrERhM29nYGBddr//5/DgV7WZGD4e/3//9/b////u4yBgfkWUO83ACxuXYvr9+g1AABAAElEQVR4Aey9CZylx1XYW33v7X32RaNlZjSjfRvJsrV7kSwsrxgb7NhAABNss+YFw4OEEMiP9yCEJbwk5BEwJuHhgG3wCtghz8b7Isu2Fku21pE02jUazT699733/f+nvrp9u9U90y3PyGO/qe7vft9XX62nzqlz6tSpqp5f+atb2z/wkvPTeevqqXfi6dTs6U/TPX2pmXpTPU2nWruZWj09KSWvE+7/bxBot9up1Wp+V1a7p6eWarXaPHVrJ6odrgfcb7zrE/enS15wcTp/Yy0N9K/mQy9XDULxt87VTO3wO0EkGWwnfpcCgQrXIsrxiEGW73Dl8ntjcsVJaflQSoO8tdp9qac1nSanJlLv4CDURPSeRoJKUpPeZHp6GkLqp2dp6ZXqUCE0F9l0Z+R3L6mwXq/zfcaNjY2lvr6+Z/jPhDjx9J0BAdu9Naeo3VgQaBMI2OY3/xnH6/hxlk1uGeUDX5vTcs12qjfE21yfxlStEY91iGNkspWG+mqpfwBCiCAGMhGIAqSXQCJBEqtx6Ux8PtdoQFy4Qiw+N5vNNAjxnXDfJRCYkUk6FZohgdl4oX/4RMfbCZ4fIh2+zo4yQ09L8ienCjc7uUShnumvt518JF/FycSRv+T4iFudhAg00A8n6YE8lEHrteAEBcl7e3shFBKszS1xJ4XOgxxkPjc1NZUK8cz3/YTfdxIEaGNk+m6XUcu2n93++uuiv579KX9YAF/mJJPD+jtfGh3/eT6G1zz+kRT+83/qZDRDJHjFGMYa1Riyw3Za9PwSjtwjOMgiCITYQVwdjqNIJjsDECe4iND57nFtRqzdrrv/Lf6FQHzvfi7fv533lngNgcAOohiWLz/5m5/8MItIGHIwVIeTIF7V633p0IED6dZbbk5r1qxJZ555JiIWyUEoIrwcRvFpx44dacOGDWn58uXpgQceSGtWr0krV60MrYGcQw6kM2wZnxSiGRkZSbt3706nnXZa51sEPvFz3EOgmyB8dryakQ7kEvN0PnIryFfz4ThywcB6KBQoL27Wxe15yjeLSBxG9LTraXxsnMC19LH/+T/T5z77mXTeeeela665Jl1wwQXpscceS2effXbavn17OuWUU9KnP/3pdMUVV8S3T37yk+miiy6KsJOTk+mRRx5J69atC0J58MEH0/nnnx8Etnfv3rRy5cp05513pi9+4Yvpn/3EP4v3ecp3wus4hkAhgJHRsbT76afT6Pg4pc1ielboFHrJhFMDIe0g5zo73SX5g50l/e60RPGF/CXVuTlLFI617cBX0MmvW7M2DQ32P4NQZhFJE4pqkNQAg+tWTz09+cQT6U1velOISXfddVd68skn0/vf//50/fXXpw984APp93//99O9996bbrnlliRXuOSSS9Kf/MmfpN/9nd9Nb33bW9NHPvKR9ARp/OEf/mH6nd/5nfTGN74x3XHHHQGQnTt3pgNwKjmQVGxP1D1eKdymGwgnno8vCIh0Bw6NpscffyxNTkwipdfTwABzbBDC5MREdIgDAwNpCiQURaOfju57dj0CeZfq/wxUzhyrW0wquWTieCaPaEIgUk690Zuefnp3OrD/YDr3nLNTb6MIYDmFWUIlY3XyyNTlIH3lqlUhDh06dCgQWBFLQli2bFm69tprg2h8/6Vf+qU0NDSU+tF+/fOf++dp7bq16fOf/3z60R/90bRixYoQwwz/t3/7txFfYpGwfu3Xfi1dfPHFIbrNndQpg3+J54Q7PiEwDY4dBDfGxydSPx3rqtWr0/KVK9Lw8LLAkZpjWxFRJ14FYousx8fVQ/kkEJlbb98A4mIKYvGd/7gs+iwi0UNnZCu1kgp/7nOfi3GHItZ73/veGGsoKtnrf/nLXw4xyXkPRSm5woc/8uF0+umnp6uuuiopfr34xS+O+I8++miEkZgkgBe84AXpgx/8YHAgxy2FSLq5sWywm7vk0s3+nY9Nzw5x4u1YQcAOzHkvO89+cMD2epoxpp1qtCO04Dc5jO3rVELruLqyCNZsMl1eaW/37tvfIZBCKD0D7/hS+4O/eGV69WlEgDh6onaYIkA/ExPjaf++fcEl5B579uyJxAYHBtP+A/tDTBIIfhNYik3jyKUSgoTzNHKqhCNRjI6ORjjDezlmcWAvwRm+uO4Bfvdz+T73fkIsmwuR5+ZdBBqdaqZHGaPu378/rWfsKTEcQuyu13tTH1rRkUMjaRrCyQTCBF2oT5+b8i0mFxUNdcSnFuMM5/3GRkbTIOW+4PyzZ0WfNSaZ+YJMCQIrQ5588smRSAtepJZLJ5KvX78eIpqI8YUEsQ9iWg27FeFFbscbxi1IbBi5gu8SjETlwN+74xlFtZK2QJWADGseUrkEGNoy2KOz/7pGvUEjTAdhDg8Pd7hRfDzxc8wh0Ntbp70H0146TwllmM5yGe2gWGXb5XFIFq4avbntj3mhlpCBiq0ecM0RyBR4Jn4qLtoBdI9gZhEJ9ao+9sA+e9Ott96WLn3eJemhhx+Knl/klwhEchM8ePBgIO8555wbQJIwdN5PPfXUtOupXWliciLeJYZVjHE2btwYWi/fRXrvvSC+qmXZt3ls2bIVEe1BZNvh0KYpvpmvGrWTTjop0rMRJEo1Zebn2Mb0T7jnFgIrVyxPo6tXIWKNhNTRq9hFJ+p4RANCOzelBtu2jDOf2xIunJvGVc4HSiZNuMkqxs92/nPdLCJRu5Ww+pUrTjIqE2F3MA+iVkuktEe3osqcVlyklAuMjY0Gd3HOQ9FLp9ZLjiAHMZ53xyUitlxHDqHmQyLZP5lFN4lPguiDQCVAwzsH09/Xn9SGWQ7TMV3jqo42bYnJ9E645w4C9rQizzLaYePJG6K9Rmi/6SkULWiH7G7FFf4xc8pzZTGE7+qiC9GIW93uqPnb5fM/N/1cNvyRjuoUsA/8GhpcE0OD/t4yTJ/hJ7OIROKQqlqIML2NPnr90xBp6uncc8+tKpxnzR13KHKpubIX9+5sukSlSCYhSEhWVo7T15sRe5wxjkh+1llnBaKL7BmQOZyI7hjF3uecc84J5Bd4joVM9+qrrw7CNI7EIVGWnsp0T7jnFgIFnYZp+yGIRZwQIW3z+Vz0wfN9+Hb5SZyUWXwSF2ecBFIIt9t2ayZEfDeIrEfCNxFdSaiMH/STIHQSydatW6OHF3HnM0EZGMyAFKEFpEDVlXQLF9Jv7dq1QXSmZTkkCsMXojKMnMy4+pe09D/hnhsISBAFN8zRtnhmrz1TloxFM+/f7qfAJfArylzRRIyk0MDVEP+Lm03yVcAaZsIOjUXQmaAlyvx3M1LsOZIrQDX8kYBaiEcCKcAv8c3H775bTq8T7tsHAdvBNupun7mlWSwuzY13rN5LeUqZKX4Hz7rznEUkYdRZ2d3IPIxUMZFOHAFRELzjycNigGR4w3Wz41LA7rR8ngtww80NO/d9bhon3o8tBObCv/vd9tMVfPE5Ol0R0b+Mkdyd8aaDm+Wf45WObyZ88Uc0Ah+60/C5Vlmud/zNn3FHdKaaoJQ8K3+VRaUjtnziusqGKExH3MpjL79nl+uFnJZN5XPgQm8lUEZ03xRxzCRUs5U4pH83sHzXOV4pPb+FNYx3r+6CGraIVT4Xp3akEFeJX76duB8fEOhul9K+3uOyiBV+iVH68ZML/gx/vWfwbiZ88ceHOBEi0l/AX+96xJ4dvtuf5yi3qUWCfpztukcrIDIRQHxVeKrGVIsV1y3zRwX5MN9dPzMtTu2VrsSXWLrjlecS3rt+c/3tVUoapi9hdjuVCd2uuwzd/kf7+bnK50jl7i6HzwVWR4p3NL+XNit5W45OWxaCiAwL4oon3ZhZ+es3g0JVmK5vnUJ3+/lc3CL9qyhR7u7oJZnqPotIcuXyzGgvLLAhG8SpmrUnt9JeBUELUPTrdvpLDBPY9DiAV11s2k44mU4BonFKGnPj+25Ynem7rNK7cb07TtGVtFQJd7vudEuY7u9H67k7n6OV5rNJp7uOlmkud342aT7bOCXvcl8wnRBtFvg6i6gWCPMcec8ikobWj6Etaqc9e/el7fdtD0QV6IUD+CySeulsHP1E6Iceeij05bt27YIwppi1z5NIIrSX2qjuQXiJX9KKBLt+uoHsjK3cpJvIjNcdpitqPDrXonMdzEJuobwXCl/8hUdBTNXdi3XGUU5eyMX3CrYLhTmSv2WzY9ItVL9uf8OW93IveVieUs/id6S7aWih0e0CRmiN+GChuj8947kJLjXnSAqdQKbNdyWe58rNGrhHppRfGxwn6j6FgeLP/ezPpHe9612xLkSRRs6gTZbzGN/85jcDuAL57W9/e7rvvvvSjTfeGMQS5ixUpKwhEXCf+MQnwvzEeZXXvva1Mft+uIpKAN0NJDE6Eeldf/OVq6lVkyBULUtEinibNm2qCPZpCMkJo764HNeIRHJH52VUZzth+WzmWSyH+Qsr83Ni1XRLOSzf8mXL0779+6KaJUyZQ7J+wtPwlsVye6kK17KgcMvDwSjEEkSF7s7Ccjh/5ZyTd+vrd8tq/S23lgqq2VWv33///QFDw1gO4WEcy+ll52R5bLfFONMv0ovt5LvribYwUSweCCPLIq1o8OjDBKb2Tebnzjrr7IDjwYPZekNiW75cq+LlwGaU9t9P/BH8VoTZUy8Tz8fazRAJBdbuf2JyjCW7vTGJaKEEqrPnVlQiuO666wKoTu6JYPrbsHIJG+See+5JP/mTP5n+9E//NG3dujW5DsXFWprOb9myJRrj7rvvDuQQgMYVUUxnrvN7aXyBWriQxOoEYyESV0Pet/2+QFQbQUKybBKMzyLDU089FcmXfEzb7yLoCgC+VCIpmpdSB0VJES9smCBa6yWCifDmaTht1URC/a2PYayT9ddf1JKghGXhunNh8oz3CmylXn43bdtCWNih+S4cJR7LrWhqfj6bjx2MsBCulk0COXgAP5DWMMYTnoslkihjV7ksh2mMk6d5lTKZtnlqcmT6wmNsHFs+iGAX5dZJUJbXMAVewtm0VmEO89wSCZXqw2Ct1jucJsdzwRrYVP3d3/1drAGxoi960Yti1aEFv+bqa9KOh3YEcglUG8JViFbkz//8z2O9icQlEnzqU58KBHYJsO8CxIob53BzKzas+Rbns0RrQ2qqEghO7yYi2qD2djqJUaSxnJqzmI89pohhWbUVGxrOlsrmMbwsz++YfkHoQpwl7/nuIr5lEPlFSusmDEQm8xHxRATLZ9464xh28+bN4Sehm6cwMdymzZuizr4v1pVyl/BaXkuspi1yCWsvEdJ6mbZl9b0Qi+1WOKrfhI9xvSzz3Haam2fJ27vfjGNe1s0/zY3sqIRX6QB8FkaGFWY+G96y6md5rEOBkZzRuglv4Wq44sxTZ/yj7XqG3nFj+/0/f0V69WZkT/bYsnBOJPagc56anE6DfY1YZaYMKIIGcFneqyl00Skbx0Lrvnbz19JFF18AwdGTox1rYDbtOoK8BdEMws9UxfFNjqss6lIWxaOQOS2P8zb+RwTjw77jT6O0mXXzAlKgz208kaVho9PYM3lGUePHfAKwfCxx833hcUyJraTgcEctoOXrJqyFGk1Yyd2KpYJplXxLA3fXq+R1uHuJX8L4bj4FSYu/frrucvousWgytDIQlU4EeHU7d3C0frm9MxTFycPhY8nfdKI8RJjAtF7DWSFrKhmvScj29r3y92Ef3CKbKBG684EAR9mBfYFNJdlcDuAXOJsn03uGfuHL7ff93PPTa7akNNJicNzLIJ0Y6pWM4E9/hotvi3I2RcStQht9viSKX53AfdWLO0aW2OjZogrdaYGSYV82f4pVhvPcTKNTjtkJ8iF7zHiXks2T0He1V4HS3ErOQGapcO9OSbwobVCBPD7bD2byzaFLmO64x+p5fiLJ5SnlaDSh4oOUcm+7kfYBi0cfG0k797Fcd3gNFXIWs5HGnD9ZQikN62UmuriXl+zVCaD3lp4DaevKPriWvYyaC8WUrGnLO2/Y99ij4Mdfu8c1091gLYkucCeTTnl4mFuUEsvGys4InZfieYT7EspzhJS+LZ87WGu9u+of/qVF+RRwqcIsoQ3EpV7atUV6rSp5+3DbtEaaPVW67fgO6povOLlwa80Hpa5yzvd5jp9ZGiNqUz0op1iuQjwuFGMlDI3LtqY9rPvYu3N/2rdzVxplcX/fsj15s2xEmtjuNJKak8uCr1SOElhR+VJGaCtuBEsWDzxTMsKMLBtIT04tSw1lFwDp1cP+M7G7Rqe4FZEA1BYb6LXdRG+RzioX1wFIeNA4lcxgiE6xeJ6jwSzRD3OfyeMwgY7bTwEXETOEIYs500aKy9FWeod/hI6WCa9F/BijAVD9a9rMeNDCkV4dwNfIwjC2a6d9Qww3zGLdUtuA8GQa1Y4sLAEYS31j1SL4ONg/yJCBotabk2mQUp800JNOOes0pvIZj1Do9hQDPQbEA8xRLNqZL5Uzu0SPDzi4JJDcALn3iK+WJ76N1wZRGAylqXFWQwLIoOM23KQBEkMsuVeRhxCBtEVmgb1YZ3rolyK4xahyD5m46PNNbYZIyAkYLN2VlJce89seA8Rox4rPUgfvGcb1MO3oLqHfMlQX2wrGqNHBRbfJS+Ym+urvxReJsdMBmjJtMNMoEfbIPznNI4czhGNJ8uE/41aOa86BY9OuN5GTUBAD9DIobzBqbqttmDJWTxqGhPrYF/jAuAi2+MyDddrTRw9ERUmr3XJw7mU6Xrlw3qebo6m3hy1pCK/1fqPm4i6W6bIArMniL1l0JjZuMWYpafh+ZOe6/UIkhi41sd6uoDP1jiePvjt4XporqS4t1vESWoaqgWBGygLfDHenBjJJUNpA2opAKi68qDqQFDJAJ77daHR0FedoShwibRCLKVoG22YpcF1KWPPI9fNJXMgiX7zEXGHpiBstKKXFptkttFCTAKAFtbtvUh9sZgIOc2A/k0loqpZUWNKJPYWr3juz1awt0+IzzF2oTyzAR+YL/ssEcZ28Mz0o4kEcamNoiLyJsYQqIB0gdZrM+i3CyY1sgNlBFaksg1yjB+3ctPMJjMGi7eGgLjhzIwPvliUvS80NoYYIMEVYuVGdeKalM5uO1oznHBYUIA3FO9+jbgY+XpztQVkEuRpJKzc1PRnaqLynQEEZC5yJScRaiotWYz+3HjkK+ShOKylMt5Ag1N6Q7LSdopII4YKB0VFaFi1BhJ2asiz+zZNzRcDzfJnXKyQUy8BfaFRJWw2uS869Cw+5aKNNxs24KCHEIAK3QJZB1IH9dPz11uro4efNZQHPrJUSIeyNRSYSqgBDViCRxomQTiCanMzBGwhHC6kqzsAHqcQ23q27zWEzTU1PRDyRefEuj2E6PUWkRnqmb26UQ2LYxwRaA+WBbF9FuLv6GUSVqI0zPe2MdVaPWo/4aH0IVKNRlWM7zmfDmH7laRrWp0TthD0OHhw5joIchw4eoi4WCGgjfi0fXkn9V1BmUaY4AtgRRk1K7cq3he7UXUnBcaccgleFr5ocBNFagpQYexoDEAynGgAnN0rskUi8B8DjkbeFnGVZbHmihjAIyhDNkjs9cfLp3U9H3bWGryHVNBRx6iBIvQniTowwiKfnphcdbi9LQ1Sopy5wrNhineC0oCK/1TFujn/o4AiTVC7lteI5XXuN6SCmXD0Bl6sqSYC8lE/FQb3GvAx/biK2NFCQFelk5UFuVnPqBrTPzsdMTowhZmEuIXAkCCavZk3qHXFstvgGslTHk7M1ppgCmGK+qQGiiMXaSMlF++lVhdgM1HJ7LrW2YFrAvZCbGOIxUQkpoo92DQyQiCAItsICT8jB83GOkYt2z7lSkuz0m8JEpjcmc3OdGyGC2FVT3LoUDOXGBmJRIfwdSDvDt0RnZlFpsi8FWLZsCARk5pmeIypPo9Scm6nDbulRatUpW0JScaXVRvxx1BQJ2LsrpiAO8J79llioaOhSmhw3c6tcUrmY2xQpbookhuwOrYhkT/Pd6Kynpwi4kUNjWKUn9QcMwqTUeAYWtu5Muy4WHrnHtvPLs3BCOCaLwbvc5op6pAbs66Hmz1JGd/pFZO1wlu6Pz+LZupV6WSudHE3SlCz0a0RBoV54SZpSJMJ3EmSYIIRbK6ipMkJJiMfDOhO1pzBdwVtAnOPjh1gSWbeYHZ/yO+TZVAbmYZwfuxBee7BIbtQAHgGma5jae34jZzk6tlxsWUixcpZmtvNdAnG2vO7uHjzHruj6S4lcIR7xzqeIX955XZLrFrOMKJosHcWWlOWSA1tHx1UShcsShEUgZJVSgV+5LzkDIkRcOkh4Nm+KXr0ILpjLgBIK4MoX4tr+pw+l5f1sGYVN3TPyo3xymqPhTKWkZP1nXPbVT0JpxHCBQZMDpz4HIfEFSqYXh7eAlApPpS+ZSebwTxn5M4vOBQmOZSTZp4TQIgxQGd/fTju+0ExPbm+nhx4ZY2fy6bRmHfY5m3rS2ZewOd6ZEMsayJX/dnsiCLCHcYGi2FJcAUbEsY54CGuXB/jqi/VU26WJTQ9jE8dr8Y3P3r3Gqh1feAxnp2I6hYCKqY7vQQiRDz/EduCvfzHhqZI4bm65Lpr7WE4uehE5S38lZlqLbldg0+230LNhmyTQ26YHVP8LQkxBJJoxPsr1iVua6bNfuintf3R7WgOBvOoll6cbLjglYfsbcFR5MzzMEADzIt1S8o4IC/yUOpW76Xa4FJ6+N3pGaErGIfZuU1hghpaHMYlnJzrYDgxYIIP5vDOqlUqYNYOxoMQqtBiFDNWcaKdH7mun//wf3psO3LMsramfA6sdDlFnR31/GvnsE6n+/tF0ymkr02VXXZwuewnrUc6Gkww42ajoBauuZC7JJeZXTFtXVa56zB6+hONjFczXziNIodpXVhtpQ8CieTRGIDxDNghkx46H0iANFcaC5KcRpUZ32mOpESmGlFq7ShD6LcPUe4r1NYbV2FJDT223io2WfnPtpSybZak/C1HXuM/GqbBQcRPHAQLjKdYDqdTIrgMpXjNcCqL6pfM1sCy3v4/Vazz5rJKoxUz6BP3xPXvb6SsPjqebvvKFtG79mvRjr7kibdt6TXJ0spxrLVdfexWWwSwjYJwwPsEapSaW1VhZ29TumaWL35mMwm+xP93RTIdqR+cQqfqR1BtjT9E7j4rIaLboSZuKQ/T2vSEW5YFWLspis4UGSFw2pbwJ884RJRScncjI5Hg6uKcHy8/+tPmkbRzx0Egb+s8MiDoO0b4Ou1B6MUxinuhJn/qbqXTLjfvTdW9ck857VTuxMxHUnRtKI8o+GlLThsxmyCSoJrLLreRjBVDrHXXXq0MGlhPeRLwQhUDMNvVvV4NGRRC/uLeUW3qalsjbQPZzfsnNoldjcu4gfxWDfdeXPM3Cs61btyYXoI1jYasVrfvlajIe6dltczn28t0citMaVuf4R6PP4GxV+UuYo303fyfWmnSOzk+p1pbzFbjl/HIpCwy9d8pdPA3oc8AyP/rrHMnkyF7EeKYa+lam7Xva6S8++vW0cvN56Z++4WXpktVMZjcOpLH28mjbXjrqSJ2hwCBw76fRx5m/O4gZ/T40cCoXVmK93Wlq89R1CpRfD/drW8MvqzQCAtRbjVZ+NjH/6NKV9+k7OyPhXNuso/J5CblWJRJfIxXnJkop9cNzZGwyPb1/d0Ljh1n5xvTSV52T3n3H3Wk02qOdlmF1vP/Q06l/mAU+jEmgo3Qqcb9+zxfSO9/zeLrm8mvTK04/M51Kur3QXy/croWIhgoGoswD60IvJAkC5hoIzG/V2au6XGCcXk0r6O405QoitxzBHfg1DdeUW64xn9NEXSIwjtbLxRXuUpQEx7OioNO2pfB6VCjjY/lenpf1D6c90wPpAaSIP37ne9MVV12ZXnPdQHLnttj3szmAfRdivip3564iXVFZhwk9xrd9K4fTAbh2G5OQ1iR7RAu7HCBCHYsf2hlJHBk8t3jJDUEDjJ7paZeatemIoqWCOf7+kcm0a/de+CS977JGOjB5KG09vz+tXVVL46N70xBACHUwOz5OYeDTSzIi+dO9+1Lt0nVp34tOSn996L70D+mxtJMkD2FzpnN+Zdpe2QE44R3/yLe8RORuZOb1W3Pk0w+BKKuXHl9xSTlWhPYugitq+d21Lz5ryq8rxKQY5rMEYnyd4bwUy8q4xffyPQIdJz8F8cs9gG7Z9Khc+ebdubPpBqtaqeo7/8dn0kuuvy696aVnpnUTnMsJqjiXmOAyDRrcuRGNPrT3Vg5R46pdOthhr57WcNygItc+TjaYGM9wPZaEYqvmxrGMMbq2tNa1EEq8LvFHAslcxNSU8kdB6IOujOsfoKcYQKxrprHWvlRffjC97uUXpJH9d8MZGLhrLza4PPUyidMHbA4196ftax9K37z8YHrijSw1PW0yvf/hW9Lt6WAaY4/ZadhjD0SX+WFVTLMnbhjNBZQr/2/1BsJ6aM1TbASuOOK45B//8R/Tf/9v/z3GJCbvCsy/+Zu/iRV4Irgc46/+6q9iNaff9ZM4PLvl3e9+dyxEkiC+8pWvxPsjjzwShOYKz7/8y78M0U2COh5dIQJJIK7AHx4rQvFmB6XIYjM8RbC//eQ309kXvSC98spT0zDcgK4vreSrvDQUJe5B7aYfxMndbO54coed8cq83Ji7AS6NMk7s9IRVviR1VJ2Tmrl+UTOKItHoNQOBZ5FhjixwxFZXDR4cORCV7mXl4wQ9bLPlEuEetL7NdNFr6mntxzDXP7gn9TVOScOTbLSNBDXSsydt7/1m2vUSxiav7E1PLXsQeDTSzqnR9A8HvpHOWnF1GoI8GqiGnbnVWXaqEA3l+OdochF7dM+E9ESnL9345VjP/5a3vCUI4oMf+mD61V/91fQzP/MzsUfxT//0T6ff+I3fiN3uHcR70tc73/nOWD3pSs0f//EfD2L47Gc/m/7sz/4svfnNb44Vi3KWm266KdK59dZb09atW4OguhdpWc/jwwnt4gS6eCN6Vy4+88a/vPIru7H4hlredOnytAIhYIWTyjUGmHSYPYhZdqtNOgSNCl2XmVvUNlQmMNWcn/Nl4ukwO9rv238g7WcR4DLGLJkgCXaUHWSqmld7GlGaglAOizJDyc8ux0wgVoxZXHoMzzupMQs4zqx2C+vKgb5lEArIPwmfQSC96lXb4BqHGK4DIDjoSGt/+saKB9PI965Ku65Nafcq1qgPA1Q4xzjWyjft3J62pz1pGlVtQIdCm1vH8WLv5WV9luyC0mbHdLzxm7/5m3CN/SFSmebrXve6OAFM5Pa4u8suuyx97GMfi+Pu5BSKXC6B/vf//t/HcRTG+Z7v+Z5YVvxHf/RHHG9xazy7nNfzJj2awoG/y1nlJi55/frXv26049AJH64AU+5c8wvoDcfM35xviUn1dNsjrbR89cp09vKetL4+zUCe9fTMk4Rj/sR1Qi24KiST2pjIyJgYZuYk1bQ6/jRpvk8g7uocZItTswX7+HTUflSKK/TFbCsUQ92UqXNB2lB0V7+w6EzDuI/QipJWdJKBmuYnihrKnL1cTYROnugt6unx6UPp4u9ZmfqGWf9OlzMxOp6eHHo8Pf6yvnT7iw+knaezmUHvKLsCAEil0pUDad9gM33z0OMJQxpzgtDRcPEUhMJP1USdewRb5I/0IZFHO3fH4YN1izkEPiomicieDel5LBKEJxWr5VIl/MUvfjH83ve+9wWX0c/xShmo//3f/30QjJtqSID/+l//685acte7u0GEa88lmuPWFZEDgAfso6AF+rQzopPLLhw9fvozN6ZLL9mYVrboBacOpCFV406xhyYRVASmon6ML2PSkXTAzWjESNdxHx06z5rLiFvLUcdPAqOWZlUzASP00foBs0AHr+g5rWghi/xkdZfmjCH5B1OMqC04Rrut1Ckam75DMge77PfENT21H01XT3r+Zaene3puT/dtejjdc/WBtO+aqTS1eYy1Jqhcp1FRN1H5YZ3suoSp3fvTE089yVQTg3Y4lARo6lXWAUB4jCYFoZL202Jd1MCeYg7QJxiDaAi5hqOM3UzC81Je+tKXpptvvjk4gptAuKPMl770pZgv8WAhCeZ7v/d7Y9cY1cA7duyIMYmHqrr+/hd/8Rdj5xfL9tGPfjS+SyCKdnIQ52AW0pAttj7HNlzVI5GJLesVhp4VxShCucBwBBxe3h5Lp65lGybs8JoSB+KWShf76XPPvxQu/QeMI9vpq1/9UnrF9702/dEf/xd0PIz9Jjz/xh7XmtDOsBftC3sV7Wx35t3GJtB2BcEe/doi7olFJEyGs1lWVcsl5ynRBbpyz2jWpOJyADUcOodkeVgGItaYB4AIntg3ms6/ui/d2/ha2nXm46n1ArY3aj2cenfvSsOPjqWVO7HKfbLJ88G0HgXZ5rQqrZzWJiASDN16EEj1LkBF9mfjrHnpNEp87Zo8P/L3fu/3Yuzwwz/8QzRuK/31X/91esMb3hA7ypRDVD2S+/rrr08/+7M/G7unvOMd70ivfOUrgyg8qfhDH/pQXLfffnu64YYbgrDkGK9//etjLykJS6XAT/3UTwVnOuOMM6ITKGU5Xu4SRMd1gB3QqzgA7R7iE7PqT+xN/VhMqOqNPr+XY9DFCubFhgaH0g+84U0oQT6d9u16Kv3bf/OrSBXD6T/8wR/Q4XyBNU0Yt6ISDkKBKGxZTYlcmjDJNP6yNSchaagM6pTmqD6gi4XNQdGTzJdE9xuolWssO6sYzJIyzcRgZMGA6o9eQL6SiSMEmYzBFWE2YaGTAxDCRUPp+W9F03U6WwSdzwGPk5xABIENNtnphAkTzdSHiGMn1LeylU6eaKAZIV2yUpMVDsJ0wE6/E5drEiTZTJ45yGJ+5UzdTjW5R3Y7+F6xclWMI6679iVs0nd2IPkrXvGK2Crnd3/3d+O4OwlGlfDHP/7x4CwO3N394x0//4502eWXdQ4ycg+pF77whbEB4J133hlbNslJ/uN//I+x+d+ll17a2Sqpuzzf7ucMHdsS5wsPtkPco3e0QWhx/N0NeicHLg1j9qSeTiJhT0/aBeygYV5+w8uYpN2bTjl1I8szamkPZ6r/5u//fvonbGD4dx/9exQ9zXTyhlPYD64/bWXsluV4G5b5FEb4d+3YSx796fItbBNF2kfbNVauWZkGlrOOt89KVQwTBMkI/eyyk0/kP8QpQDHd4mQs5M5Ysy5LDLYIdMJchV0DDzIjPYQFcv/B9GOvexEVJn8ACmNG7JiAgCEyiiei9yPP9hJ/CPXfyBT7bxHKkUodkZFbuMzHZuZJlloLk5nNVXMK/UwOXn755cEHL9q2LcwirrzyyrSNZ8cUqnuvuPyKGLyXuRIR3sF9mfd44YteGIldcskl0RPmBWWpwzHkIs6TbNmyJS45Wtkuaan1ONbhK3DnbCoC6eQpodA2YpWuzvhq2rPSeR7k6gfH2s06YtJUupsNDLchmn7xxs8zSYvRI4Py5qQ4WE87HnwYlfoHMONht0nE2R980xvYd2sD4xaIjSZ3g9nP3nFPGu9dmS7ccn6elMTvaLrGdA+ICBeZYiAd9eTH6uU3UZySLNHNxKi4RoxBBFlGXxfUSCjmp8A6POhmbiy6SeNp6ul9aVnvslSbYOTCyH+Q8UYTcSxMN1R1gIi93AbZ56iFTt2eYxoKmoT1uvw4lqDiVwglZ4LHTKF4OYKjbKoBZqJUTU2BY/cMOMQ02pe+ythOo7s2+fdigGckNYUaB3qG4HL8XKNhB7F37560eq0nGFs6JN1KLLU00vgA8z4OXT1jcBx7JU+21fVhhZAHW/HKD/Gjscp7uVtOP9id2IK508vhc20C5jMVq+pouC7PktwR7p0YnYccQSYc6ekPSx+gOKeyi+bBQ1MxMGd2i+po/tJIT+wZSY89vjP9+Ft+LN1++21oPDkMamh5uvXGm2jPRnrr238KUe3xdBtq8Zu/fCOGrxvTP/mB14U4bF1UCOzDmnzFcP+SpYVc2iP/1tpOa9NT92GnpN2WldP2yhVbAXBvS3Q2kZfrQ0S2ZfT6DYBSt/fgMm1FvGnVfvxNQwzaStVa/dhBIWoRdxpL0BaEgCosl8cJJmUoZNkm6tZ944fYTA07H7wG4NkeRlqrZtzxmnE21JxGnPk4/5Mw6KEBFR9yX1gJb3gMcIa9tlpDQ6ouQUoxwnAVwgsudfhuiCcX0TnxpV3UmrVseQp3pPb8+ZtRP+KYCN80I2+w0C0IJH+IkMy7893ZZa7KP+74ZA/vpmgYfIQ1cw++u+oPxVsUFRyM3lxyCtKPtPgJXasxF+cEaXRE5cEXnn0NS2g7QtwQiCAULlrPjp0Y046i6bQ8GipO016rN61LP/YTP5V+6//4d+m09SdRpl5Ezf+Ubv7i59JrXvnqdN1116eLX3Bxetubvz+95vqXpMH1JwckGJGkITp2ieSmr96Wbrh4a8ytmOfRduLYjLNeAbkZr6PxFCIEEz55Nw6yYITlQq5imkHHW419MmCFtLinp7PTNrhiR5xMBBt3ebFqVNM9Ns7MBYR3nXd776p8UUCfo5AZMwhf+u2MrBXWGD2cuja5p/5MidJBRHS7k0gXf+cMTLYkHfH8kasZzzKB+E6chjgjUehMgxum5+VZRHXtTrOZVxXWG2iSIFQ7rVwG45kOl2JvhdT6Hiu3YetJ6Wt3YYq0bXlaa4c2wSbn7JLzx/83yhA0fXY+7Xpfev4LLkt/+K4/QwXO9rPA4oJzL4zdfM6+5Jo0qrEjHa7128+A82bmXoYYuJ+BdrSvao6jXX4hf8ydCN3LmgTNsPvoYRWdPOHXlo1N6ESKBVyIDIQP2Z17mLIjXpXd2BeI9i16A+1ARKGuK5g7F1wzBbecIp2cJ88u+TzjpAO/eIVTL+oEWcSbCZcjkVpmY/FB2TwQmV7Wydnscn7VS04mipvTV2zxkoPYGbXRIjUZG7qefMZJdBBad0FnPh7VJ7N4zasvTnffe0c6RHXGULrYOdTao6h4D6Uh7LEUVwfRZA0xPh3kXRWx5XP/gGkG9E3GNENEM61JbLZGqerHP/7VdN0Nrwk7v7zM9qgWOxKrWuzoJ9ydojtODGrqjFpT/b9aHyeD2nCJamTSHTyeO502bw56tQqQQKZodc8q6Sy+CZbzjOjfmkcgjQ0kEun0qEBV6Cb8qx/8DBF47XNc/IR8mMPwBjmYnhwHcZIIUzT8JLCYRLyadAa6NgGfYDf3pAkPhpEheEaUXBSjO98Us8/mOMM5ogD4mIvPdkQ1tD+NmENCtMWyod6zDC5Mbw2dCPcsSkakKFN+Oja/kvYFa1C4sMr0s3ccSKOD2Nv1YekNATQGVyHqY5lhwYFZDwQt1xuENTRCQ8o8MvFdwNoQBuw/4Lq92+7ekwbBi2su4QNRGaIeE3fsiERM0HE3kyG0G7JTt+1pwS49SSsIJLdpBO3+EdGKU9RSW6TlrYPdZfQ4apOKC/n7WBBLycAWiGvm5quEXK7A4sJ9Ijg/lFuXCb4IWvAF6uYkpwoIIMLFqlC4BfYG8InlPKnYdtkRHMAkmEti25oMyKBAUy1OAHrxbv6FsHPWdDAYAKKH7UvYzLGG45u3Yr3AMulMILaAuftGGsfQwTzSWiTFiy+4MH3t3gfTzdhxHdST5RC9tO0A7Re6ryblZXw0hfoqmz1C6MJpbE9a0WZhW89E2lkfTLcxufzhm25PL77yeek0vg/DNfu6keYo1uWYEUkczkJBYy8q4K+K9pST1qHrZrYVQhEQZu7qsgqVeLOhaLJAeJvOizTgIG7no4jmAN11GoVwJBCdY5ej5kgylyowj2QrMJVXGsMmzJfolXmEZOC8UL6y7O88QS6h4leuT/YwEwfWlNsABAwao8HLvYrIzcG4Q1TvVT0tS8dJHIXzmVjO0c+eN9NC+yNT+sJnJtIH/+bjwN8vhsklygQyE8evR9tJDxv4ufKC9eTcSv/lz96Xlztg6BrwZcd5x5qoJykWHMdOFI5p8wqPASQRt0c9xPhpD0He9bdfTXXmnV54QSOdxnutxWxMF+c+muUvAu7RTDPgX45gc2a0G/zr1qzGcnM/NknjoREKsavKXW4RkQGS8WPjOEEKcYgTrvpbsRIz+gpBFNuKO9rm5LFHV4wZZmEj4iLqXBrFfbl0ijQx+mCM0UQhoZKoB/HScXUwEirfonfs6YHAEa/GqXeNbV2bfZi4qPGDW/S5MaBr54mXl5Obp2JVTkPia7InANZ/+KvmVuKg0+C74zzHda4oVHYXqTwxqofZVbyR+YeDCX35802sjf88/f5/+Kk0jIEhKXPhIo+u9+x79H/tFNmyam3f8vSTb7g0vff/7Ut/8pefSa+85qp0xRkMxlFzC4s6HWI/8mCdOTBKj93XYBoFkBONIQTRofTArnZ61wf+MZ198bb0fS/egKk9MBjZzWQ0pvOYu1Dlo+6ODZGUYtIAukCW/Bhi1ipmrAcHJmLSTOSYAjDOaDvHIXHE2IPuTiKQ06hC9aAdxTXnE54bNz/iOL5yXklFhCb/sQshhNFi0dgAywASDSW/sF4NVkvaV08qY1NwYqVptDkc+5K+dBPLkj/zlXQIU5eNp5yc3sAk6ubT6FDItsZ0ap0xSexXoyoa2zfnhEyDMTgWsCMQAho+TDEyJ2XhNd/cElYDwOiYMAFx4en4gf60/YFW+uM/fWd6xy/8RDp1MxkEDCU4XHnNb8fu1zyRm4ZbTJTWh9JPvuLC9Plv7k1//7kvppvv25AuufCCdM5GlupS/iFqv4xDmpypL9ediGef/cI30sje/enlVz0vveDctWkrsB1gi9yW20AhtmlS/51HJAXk0VvlF2HVB3fpY5XaECxUm6VRNqBwv1mtaJ07sWdUrNKmR07jkV/edcb3OrZuoRzgavSIaugUUeoN5/vdNwzEZgKQWUNmx1Es0Kv1QyBTbvYHd+xnPOYcFNOgaT/zBO9+z03pb//u8+knf/YX0/MvqaUPf+D+9O9+573px3/0BzhBDANOGru/BpHZYbByrw6sHIJp3jM6NoHo4bp64aHWKo/XanAO16RLKP0DUBID4TZ7BAyANR/5yGfTD735B9Oll4FIg9RNTLID4zELXP4ea+ekMCp7lDfL6fh6moPpZReuTqdsuT79wyduSv/jAx/E+nsyXXTBtnTVCy5Ka4d70q6RiXTP/TvS5z/zpXQAA8bXvuHN6frXLU+bKKpTso023EZuP8AYlZocCwIRKseWk5jDPK6goGbzyzl2bJhLQSs2xkOGkCC657tLEsYrcYvfsbmLMuWayUEft+V3fYxamTrdumL0KJNag4P9cAxm/RkvTYCsbTjJILZmWrkqTHN+FJNnKd1+dyt989796aMf/OU0WOkefuWfn5Xe957x9KVPfiFdeObLsNWSGymmqgqG7eAmJtV4SaCrAJTlwJMrl2mcjmQKwnHeSBsE13+zCImPn/qkZznuSldetRp7N6CHdon9kkIsIyDwJDHk/G5ur//RduoxH6dMa5lYHmKr2mUtTkY+2ErP48DQi15/FesTr0p3PjKdvnbHg+lDn7o56/XoRFcN1dJb3vZD6fKNg8mNcoYobh/ipGKl5pJMAwFZLizJ2UqH+h39ubPnjkhszQUxvNL8KMhXUoDNv2Dww3w52o07Nz0nsdzEzYk7aALxhrYG7/7TB7+W9uxHTOL7xRecka69AjtlRLNhkNI12216+ml6vdvuuCNdc9317NhPEpMjJNNKe/f3ppcjfvzhf34kfegjt6Qf/bHnw30MAFeSYzD8abAcbR9b8PzDR+9J27fvCI517rnnpRdfuzVtPUuxS9IAjqFU4M77A3e20l+8+4/Tv/zlX2CxExDF7k2ic1O4GaoQysJ6YWjPhcGzebdZ11HIXhB9Ei2lS64HmPSoIT30wCbZJCht2NRIV206O9QTJQ9LJRGsBdb9aPlazPVMu60ndXD16gSirFJIvWeIuuN/DBxNLPZWroPI9mEWj4t/vWdC8WSLdDx8oAbVQHbGH69FOtmkV7fz3ZS9qpLEvTvMs3mendbMW6lO8RECXZWMrEQktXQ2hj05+1qkx5GVf+U3/ijtnliZvvdHrk8ve+N16WOf/Fr6r//Pp9J+wDLS6Ev7ewbTHqzxDiJq3XHHV9JFF8KFiO/JXv0Qz+rV2K8t60m/8AuvTO//4PvT9gfRm/E9b3sAMVKoaeL+7+94d7rj60+nH37jDennf/pV6bGHm+mP/+gf0sMPMBZpofHDrMfArclMWL/6b/6v9Ov/5pfT8xCz7Hyyubk1zC4/zYX8zPcS7qjcwZlBRGktDerYuo3BiVVbDKD4GAROy1E8rGYcdQr2e5vgEae1x9NmxPDT4Rrrwa9+xmFpGqVHqLuzeNiDdnCg7q7/EAtc2z29joWr913z1t/4vkvXp/PX9KZDbs0DcqhuHV62EnFC+pdaqYWEgX+NyrDyiAkpzUUolDp8F0/FVBDh6S3joE18LHLsKQtiHdYpviheUEmNH+MPjec4HQP9TGogzri8TanTLVjFXyfLYjJS7lO5WBFJVpNs+RO9fecDJIwBYt5PieISX3i6mYOqZF6R99vsbOIRzg62eVck4AQuF1epWSw1aLYOpXF6rp37m2kXBfyv7/l42nb5Vekdbzo3bfIQJOSBl73owvT123amW+5i0L56eXoCkeyeJ9vpd3/7A+ky5O0brmUTBIodRpvYxGoqAr2gzOhJlz7v+vTbv/UH6Zzzroab5Po/uXcq/Z//9hNp02kXp1/8leeltZvYc2pDT7rqyjXprm8+lT79yVvSlo3nprWKU1Rm8mA7/fZvfhQz/mvSK1+7jvESkFMKATHVxjlRxwhBD8JbM2DAzYM/D41wyplHbdDe0xhmrmTRV57TmoFBwI9YS3NkIB7AekcOskwbEVvsijaxMbzwcSNDx2RgPPiH6MhAPg748TgIr9jqlq2EbHfZuGNCOq0Yk9iQS3Fk2R3FEjiuOyge0O5qW12eARp2B+vOwSj5q3ShxmR8lA3agDb7MGBCAFBB5F37HsMycx2Iydp0ZncdxLadNaVBrPjYGJux4emsuVqqWY5CjDJw1xiwL4BBXLKVZDxpdB8NOUH51qFJuv/eu9Il51+YpkfxYWBfR/YvTmKxQs7ou+mEk402cKiFBSRpWn6JpyydNW7Yksm64yXfcq0l1rzWelpNluJJdBQeKoR4NY2VLsj2V+/9X2nr6aelN77mjFh+3zO9D/MItshprE1v+SdXpf/1uYfT37/3g2lohcd+T6TXvPzq9PIXb0SSZs+tQJEM/mxTRc4UdduFtfSKl9+Q/uovPpDWrmMfEYC/d8/BtHHzyemtP342JueM2frH0wHWhw/3r0//28+/ML37v38DjvJhyrIVQutlue+OtHzV8vR9P2B4OwG0a/TgYaSeK5gra9N7dfyy0JW7jS7v7iA55rP7DUJgS1PW2Hz/939/uhMT+ZjfgiA9v15FzVNs5reZY7rXsvpTv7FR9VspjqUWj1zN6bp/O/LLL7scdTaTrtSh2AVqE/jsXAFCuWfQmFaFIQsna5R+EEyaHcKg8OtfbLJhwYdixd0v/fp16eav3Z5O331yuulL36SjmGZLSmZ06aQOcszCCA3p0tW1mEl/7nOfi6WoIrOLj0TWhx9+JJbAXnPdi9NLXoyFJ9oiT9pqMyA+ACu98ZE700GQ9MrTzkpfuu2raRVrom/6/BeDsNSICaxNmzaxW+LTaTXrxC+88EI2YLg58plkW9GTTloPnfakPXv3pQd37IjZ+p//F/8CDqHhHKYxeVIiKj8DGl9BFjiK3CXatSfPAkNqaZQlxCP0dr/+m/8pXfr8y9MPvGJbbMc5hQrYNTGQE0Q+nk6CC/3o605Prx7bzI6D44hUDEKxaqZTZy7AjenynrY5N7sFOSXrK8Z70g+++ZL0+BMXc1aImkCUNySq6nZy6kngtirCDWFODtkTry/9s7delB65/8K0/d48N/Kyl16Y1rGj37L1ZNaw7PRmEHqbWWzncLKr7nErlCKH8ZngSg7xqF/lSjA9crDyZXF3gUlnc+ddd6bNp29On/70p9NDDz2Urr7q6vSZz34GPFkHPjyRXGjmSs73vOe9MS+ldYU4MwKXk8M5N/T000+n0047LZ05dCadMNxfztIp6OKK88xQsxMob0ckEhPyNFxnlz1chWUU6eGHnkS9mQln9OCBdN89e9MD2x8EKekjp/ayZuIU9nZdn3aBxEJTYnniicd5PiW2/ZRQXLtt5TdtOg3NzWT0GINsBOGZGD0QidqQJ/fuTnvHRzCz3hTCwWOPP87agydQgbJ2AG4izNWMTU+vDO1Sb2+dVYL3sr78pLAVe+CB7QB5Km1iNZvrz3dzOIvstMHmd7mVS6vzSjlFEC+NANss9uqvrwKZIRYIdYyN05oQ8Q4WA/3Jf/toOnvblelt//SaUEX2ju9NPcvgsO6p7CC7MZmWw+gmWVS0kvROPmWQtSXMbRxCfh5m2UBooGhUsw9kU7uEOAjSN7BX8ZSxLWc41+LWqtzh4H1w1t7aGmR68qFzRaucxif3Y8GghVdPOv3CvrTxHERW6E0pBS/qyqAWTj4wQKfQpkAlv9L6VltH3lnILQGqu3KVn/3Jjz5lp6eE9IwP1feFbsR74QuvibU127ZdlM4//7zoSE9mIdXJJ59cEUGDjTVOoTMbgoOcGVzE5Nzob+vWrdExPvjgg2njaacSPncwuZCGmltQ/RZyViLrUaOOvJV7iSEIjkgkkYz7IgkQynMe4sC//Fc/AWUPsBF0Si+59sUhO1995fUQyWrEmim0NSMsdeWErCx7xb5Unh50ww0vD2SZRE6Tk2ik6PqMg2OjiA60eovpM7iV0jJrJdOV519Mn9xMW3rXpeUvuS6twnT6tFNOTWtWr0rLWUsiEa5iSW2vOz5CDPYy+yHaNeyL5eYJrvCTnZ900oYgjAMHDsSevVSGHJjzgFM4+VZcBhCEwoMEp1Wpdrv0xWkSAnl8rI0+/0Z6sM3pJ37wkthmdQrVbA2imkYXWcOmyOPM5KhtBpm9yNArqF8L1rqaBVTTbLwnDNuYxIfq1QxzUXhwrIA2jBVKU+4m0p4MAvDwIjmeyOBEJodiACNmoqlXg07LsZYasBaTdIqoLSwnxyHkfvKlQMziY0QofzOfXEEeRCxeomfnEefncDxEsE7YKmrXewma4dh5W9SD48aXXv/SWMXpSs/irnvpdSGSWyYtLZxYftvb3x6dnWZITizbuepss7Xr3E67cvOVrXxb8j13F0YrT0ckEgPH4IoB+cQkK+02DKVrXzMc2pYexiAbT99EAOVdnBM7oPf6DTZMBrs7ZygKvfLVr475D3cs73buPkI/CmJV7BIgWecBAHJG7xqaE8SBAFacfFo6RG+8lj12s0jgIqa1mRAJX0Sna6+7jrRIA6CugIAknHIN2P0GQPUTR7qh20GTKPmULCF6KdSWIONjEMhf/OVHg2v94OsvTr28L+vFUpcOxDM2ahBREwStQ7CeAyiSm7pzQW6f1J5gdp4yteFILj2to94S5UNMMOvIPisNGMFFOaFTxln7WIW5HK7gpCVtwHxAW8LGTKWNyYYD8YhcwzIWLlwjf4nV5Ey723RHFFMqaKBRm90/2m7ZVeApr3GPovFUoDXzrk95mxVlwReVM04adxOIgWPOCX/HkeXk4zUQQuRgGxImJnARrbIDevjbhqUUpXxVgCPeSsnLPeKHIoO66lk9lxwphIjDLLINWSU/kzn8m5f+ZTQIVpgCpuGaTBo8HKYTIktp8Bw/F1k89N0GLunmSPlX/6GhqqejNCiC6L0JzwTcah7kKvameroBQ3ZZMCpLdSPdnF1wgCpQ3Er+vnisWSlb9tfULje+ioY6Pb/aOOeA+gAAOCNJREFUDM8ORNnIHKDlYn0l46NNzPz9+ttfG2lCaghMgXKIYCsRd1yDCcJT/kzAyjtVncioLrZXiG8ClkESKeV24J57d1sBjkRZGFFEQAnErABTxOrvXZvjVUlmXxFlmLLntAOAfBAkub75xVl5fbJfJMi7TnJlkhSx184lSoMOuo+Jv0kQdzDEw5m0OmlGDhXgc0JH/BXuDeAxk8ZMlEbIifm9fI97lUXZJ6B8My1deS/37HvkX4nOOIJS53MDw0CPHwn6qNLvEImA0jZI54o/n5FGQPzcfPr7XHrxAHaViN+0fNWVgsfLIn9sOuFtIeVJFipSq/L3G5KYuCLqRTjDLtYZ1svidt9LbSIdCm7P5FEOakj66QSajEdUSYs2/ZRMc3aRO6OXpZEY8tgs+zp2MwcJJPdwkWlXxqUsjkB0fhJFvSyd35/hCJQ7NcPMRbBco5Lu7Lg5zRk/Q5lvF4FYgHASMwviQBBFuOilIZhCNN3lKs9dqZREvsPuufJCKbdDxrF8aG3VifGtQySZAGSFbD2NCLQPjVAbIzpNRKamAQdzIdm02xYThU22Anp5r8Lk9eG5AAQ6ojN5kcAOla202IQOrgHDcp5kinellygCKQ1RDJiMavRFO9MuDWu06Lj5kXM26TFd0CXyaxulTt4Dd9zQe+fTe+3XkZyYO2As4DEVNeYQJuEwLhLSNVp7Y2IwkF6TD3kf+7bKEQLla6owLYAwozk0j2fMwtpK/Bw0qqLwsoTGMFwGSJQVHw/XaSPSBqGURVemaV6UU37oHgE5gP7maI3mEonfDEfZozzkSXzbNqtO6RSI0otKTQsBx3OHUMG6gUVO1RKaTX5TURawNMPvQBcKItrbMVAvOCCnEmpuwjEwhLIDZ307RKKHoo+yriDQJHyCAbXyfZ11x20QwLPQ26ElIRyup6cggEDnQi5uY5jXw3mIcbpVhDryjwSgc3GNRAHesi9wO43BzRS/XJwkUUgsNeT7TCS5oSLiEX4KkRhDBUTpI/KYBLFKWRhZfhDAyPIdH3mw5RhlGAeA04wHJogXOE5BJkEwhsuUFytU1LluuDBeG6bupM+XHojNwCHMsQTV4b8Tr84QSyD5G89BJBIBMDey4UrpwL5CQJSQnl0eSg1EaokjCMnmM1PyQAwOiJiOm1HFm+ElFK/K2erR9JalSsswlZZIJUgt5DbgDMWMoWTxNNocJ6fh9re6XjjNd7Kbpl6xRzWVEM9td/HA+gumuADhDJHg49yC1ZZY7Fl62e3DyPnUJwgliEQRw+agEaMheXZMYiMyGxqXBJObjPuRHRuiBPL2gz+TRLVwzjtqvCbdathWCEnbH83nFb+W4iQUe73cw5oD+XDTIkBtic/aFE2hnXI2d9oZfiK4TZFbB/VSkDpUOjk9whgl17fO+o4GSOmWrW3WiLQhAmJilSCSmofIK8Dz1eN8iwhLnNhWidJYjXxcnpAX1iI0HEXYkkQQnQQX28RaCbuNCumBcxH+YqKQeBksElsmuAgbxGB5+FoR4wzx4A/RRzmIRcMDA4mStKi7lsiex2KZ/AcoceOJdz2+c5023MvgHnJEpx6oNOMR2oo62lEH56Z6M0RCQNkN84YhbgmRYD/0JsIC1CG4ACKxqiEDWpES/gEwIkdjLhF4IipXrFClc5NTkEsk71hT8YvP4e8iu5l8eV6EiyJaJC5vIoROFHVyzXXzdcYfffQijklyr898BlwxCADEmuY4iDZh5W29aIicwZarToNELcQvuYZ71Aop9L+EE04W3G+V4z3IIrgu+UQPXhUqEF9xS7HKb5YP5CXv2McrCE4/0ox0yEfx1pV9dlDBPYxnvipXFB1sXtM3rGWz5t511btiF/FdAgCPDHiocZRYYsM/oliqgFk8R4qRQsAyKudXH+KFe4Su7pVfCYLvotxSwy8q0dmBrBcK2ozf4K8dYaxlAudrlRLB0lf9dhWQjwJoCjPvISZBtNMaHXN7fNgQxkXlCLMayKJqUVWeyGXvFvhBhrH4RyAvwVlYKVfVaEgqFYAw8Aywo20NpLHAXtkZaPHOeDmGiXXFq/JiKwaXg1QuUJlnkC4CS7KgpzZkIJs9fCZjbdb4q4piaLsRNzLImRhQcUukhbolmoiLiBZx4oU4vORH/H2oXvTPXzs+fuvqy/lO2ZxRj7DcRH7TiCSqguUC+3EeZ97Z9CPiWnScvWmue36vEuQlp9kizSl6sEaTiV3EUTsPRXLTqIW4LfdUQ8gKSsJZr7qigS7KYwGpOTdTjOJyN13D2lHUERdKS/DpqDtF76a9LnivskLV+hCT3If2sXvLcuuUOweecvEsqIivdWoPso6mG4MQwwpmiOtMTCmSaEfkrnoCz3UVDQaL8QxmO9GjjB96ee4n3Hc3BOScLJODX7GQC2QOog9RUIkAub5iWEoFEomvngagKx1EPhOnopn4IpH4PXdOOfSxwyUVIpGHYko4RGekKU/6za4QSfVabopNZWbTiZ0GsnYLApEYKnoKyndc4CywhNErNyE3w8ThnhGipHji/t0KAeeGnNmyB1Z2gDxAg6wSj9kEcC/mVV2fjwsCiKfqB4TqEErxJ04eT4FNx44+IreYbOVJxWDmZ1kfKP7nEkew2WMSEV6NhmJU3n1EWZdSG4laz5ifW3qu+SoB3DSfOOG+uyHgsuWEmKX4mZE/a0UDM8Sw6Jz9mRGYxEURPz4V8PCu4FE6YD/Gs56GL+GO2f2ZOYj78xNJFVZCcd7AS+fsY+g+JJZc7sMUF9BV8Q4T6MSn7wYIiC8yEjWhoLLYItcIJ5Z3sB6kCX8CM7adQX3ljuLw9YMeOUD+YDLd7yX4Ubqb3dwsTXpuntVIKucaYhbEEH8ShQ4u4qD8AIdjGnnFcs9X76azHMzsJpiE0ahQW60T7rscAhV6WEsl9yAQiUbHasE8Par4lZFOQsooKR1kHCt0kaPBcfDQr0NfPEc078fEUSYzPIKbRSSGdV5kipG+HMXxSdwp9a233YY17UnMRt4fp8OqBdOaV3N3tV57OITlrW/9CdZz3MrqtkNpN/b+GiBuu2hbevzxxzja7HbC7E5vfdvb4kTaI5TrxOfjHQKBzfSh4IZ/YE6FcL5pvaBEgpeKwaLhY6OGaeZg7HXtZ1X+OM0Qq1FjPimLZo5nDoe7sQJ13o56qUAzvy5qJ7pTAHNzfwaRBDkbkVJGdIhFQ0IrdONNX45N0cYhigtY4PTJf/zHdCo2/ZuwzF2G6fpOVpXdfe/dMXZZuXJF2n7/9nTb1yEu1nf0swZk65lnpiF3RqmIb6lVOhH++IFADHFRaTvIDgIpRQNvxiAEjVLlLgxZ+MwDSO0uMxqRqlXSUrqOpbU4pkGnwQLfqnshkuKH94wjLcfN2pV1WznPBHj2T3m+b3auzySSedIXqS/mZKb1G06KPX01XXBRzPkXXIApx2BazpzKBJazg9j9b+SQlS9/+cvpiiuuiJRcUuuCp0FmrUdYO+xJsxLi7GLMk+kJr+McAsEv6EtZTVr6fTGbtnVteoxRFNXHEdPZh6yFaRO9LQohboTvcb8EbMQKJuR75iRqTd0RX3XsQngSpjNkN/Pdp0JaiwfdYmIsikiod1qH6ORipm7K3bRxY6c07q6o27xpczqZRU4unipO9qgbIIxpxQIuH06471gIBDprzsJgvIOoNGluadrYA4TgNE026dvLNIJHia8B2yYOTKRhiKOBmgtsyPUnAcV6nVu0RoKIPeJa8c8BZ//GcECviHvs8GlxRFJVxrUmjj9iE7TDlGnu4TqyxXBAsJvIsueJ3+9MCIAAmsxQ+IyjmVQkHpEqzwJMp4n+ZekLrL3/4p170vdeAkfZ+3DavGFDOrhrJwv3Rpljw+oWU4f1LN195LHHYonuVVdcme6/776gFccsrm/fQBxFLI8A9zDWa665Jvy/Fdh1iPsIiSyKSLrTcKCeh2aHoZKuCDExA5FI9XMJRL/5/Luin3g8biFg9+9VCqhpC0SDHVjN9Q5wkTG4wm4Eis/d30of+PSj6bxT1qe1mNB8+dab066HdqSnn3wsnbRuTbqVceu5550XFrkHDhxMKxjf3vzVr6Y9u/fE+FYc8mg9lzBMIabJXU455ZT0vOc9L/AnOAp+h+M6pZTP5o6NSUUnoXeTtqJv4Nc5VCoLWwyiiO6i4gQVCZbCmXFBeAvaXdhCGN1+hteVsBohyGNdT94xJ6vyyMXpMPEoj3H1L6XNsfEDmDVMI1psHvFY/5r0GAysCH1PY3f1IladDWpCY17VepCwqtVA0OikGTyPBJ30EhI5F++lDMKkyrESNUo5ukMLtSJv58Tym1A1JWX2bOFruCx7573LHNj6UdOILMKqHcolyyXi5YhOpZL5WJ+cVy6lv/qXMptiLisPPC3eGdaUSyzLip9zIZFhHxvHNWLX97dcUU/Xbt6WnreJGrWWp5EDJ6XmOWdRNpZ2r16ZXvWqV8eY1S2nxtliasWKFTHWf+ihh9Pzn//8nAd4ZQcdh7gC/9WI/rqCQ/HyLH6Eg25uzYP+q4/szVGJQgE2fMWOqGxBCpHe9SVTyY0UHn300TBbcbeTM9FWHQ0nmvg3g4hzU7WMpTr5W3krXE00ymjIGhB2OvnE9l3pz25hIwh2Mqn3sYkmFpS//ZL1bE/EenQ2lA70cx27pscmRvamFfWv3nNO5dfylaD5uXzpvpdQpSyKJFXiAcfqrVObbAghVpkpswsVwWq4yALaSHrh3OLzvD8ln3w3bdvTUnWNIcInSjdvGof3pFRVx5nL1yWUmCn5oBdlh3gO7lndTheuYGETSM5MW2qtYFFaJVmI5O5u0y1x6HcZe2qdffY5IWaZmk4cjDXwVb7Z91v7na+pZzFIku+q2eEzs4LDwywsqkSkg0wuHi2nhlDazOsuQFWhDiCswIzLZKQOXf9Sucx9bPq89ShLB2mHU9JTIMW9ezEvaGxAJ4l5++ieNNq3MvWwdaJxtTquR5cXivzIJueYmzx6c3075eigfeBGLk1EyxNpPqKVCWSMyGIKHMLkyCtShYvV2CBCYmjVOZqNUkd4vxMnc2+8Kmc5vUwnI3u8LOqn5gAYg9QorEAjARSvxNUo0bxMUU8I1EL6Sa9j4MoAvEgeRbooWcUkNi9+VxvqmNYdUry6XWw2WIWTkJ4rt2gisUByErcCkh3mXuHoFNPqhj492kpbbZAtEFj9eSaDCGO46GG1RC7OJ5vftQE0voNJArvMotmPdcAyFotNYrGMWrLJboZsYeXOO1XvMJNKSa1zZ02IooMIZN7mnO+dENWDhEF+ihlewTlyr61/lK6K6GYTnMCRxSm+hVRiXXUGlLiqsAWN9VcMXLLTPEjiEPMBiLlEFpGQTzq+W8X8UrKu3p79rRBDdwoitTZR3ucSSfd77K9gA+JKOmFLVWm6CkF1p12ejxXhLIlInHH3KoUuhfvW7zRhAAbguAjI5pJI6JmjnW3J7MtvJogIw1tp+OjnNXmGLZmUSBGSPDWUz0xNsA6NAYpaF3MI7Uv0/Lx0HB87biblnFr1zbUijmfMRHHNEvBsfoawvJlQckL6eVUhw9Oonpmof64BNwkSH3P1spShKpdICZjDxodF/TiLnRfK5eDGn6HBKjVuM/ktPY+FCrIQsqqpWsiJ/N0E1C1+GcdvilumsVD6C6X9rfoviUjMTOoulfX5qDgGqR5y7/lOg1w1RAD5Sa+9MkhZduzIeSnralBXeseMXHaJoWqmTEq+nuntVkCu+1XqQN8YW4Yaus4ioybcRZU2OsgOdth7h+PWYltQo+mYO+4QQSyoAqEVWlzmK8lKINlY3Pgz6Ukacr4gSvw5TjXCBtSqrAxvXXUslO0grYrUEAypTyYdS96JFOEP91M6iZw3MfUozWUyVVKWzyvK3VEUHC7lxX8TPwqKBKH7U7nCJXwteNTtJ3cp7+JbIZpCTLF9VUmsukfqM1nM+frsXxdFJKUSUrBcpOEGYRSmm6INUyq11OKoKjyIXc99tNU6S0TL2vOu5WdDDPZyirazgpINH6YN0ftmBPaL/opHgSAghKJaO2QVXzjkhrQN47HHrmWG2sGbTBoZf/i1Ib0RroOWHM7JRmN48MExBcQbB6JyVkbozxBtjJ/PmIdI2avWd7VWpuNYw1KxYSrwg8DlkiBBkw5gio0k3C3dTRuHauzC2MMuHaTXEqvtJIQ5se0aTGuxznpOMaflZuTReZCUjDPWF1UJ5V1CrKXtuZTUD1+Kblxw9tztSR3PPvLII6GdEtG9FNk1iFW9q9ZqH0fjSRByDLVXft+zZ0/MzSniG+aee+4JCw7FstiRk3DipPHMV/8nnngi5lBMdxemUo5tTHvLli2xf7Rpbtu27fCV6PoqSh7ZkXmZEJTCNUGxAt2yZAHMkRObJwQ7JH5j51j6tfd9gy06aSwwrMVRar/y+kvSG7axjSkeooiE41WQ12bNyJjvkTIe+kkoLZDMTSwUz/Wtxq8Z3SQwvmk9FJ8JUXgC0GYXePhaL3zNj6qV6eWnWDzUcNNmtGMtEhsAyd2iX2KQo9RRGohrlktkDOVARUDuqNKnvZKERujHqMV+auZWqIYf3ddO29a6NQFOMS4e/Mn1zk9+XJxTtBpgHBZiCrZUPWxe0GKcJTIJS9OLdT8O2oWoxfLxKLjSeXqXGNzYfJDdM3fs2BHIO8kmeF4Sjt/VmG7duhVD2Mdj21rfxS83WldB5KVpkxOK7irvhLaXxGQc09qI9YcEISHp1L4+wb7RN7OB+vp162Nb3K8y92JaKgBCU9a1Yfrhqr0oIinwU/Ngb2ChrPQZZ5xxuLQX/c0TzGsrGumB5po0Ocj5d8PLU89BNsseWBGCQG+YOHgORQggVXtKKplgwsOXKKgLZiCMglXc9XbXEplKJjRshhCndIHc3HNwe+/8ZI8UyOrCd7jHGEaeB8ly+YpTYy/3CWSkUx1YaIMEIYyReD9JqlXyoJkajW8hFP4cG7h6D/u+kO7gF+kNf3Jvums3pMdxZ31sEXP24Ej6rR+6KF3MTvDuEGk58xyPHYQkb30t2+KcApQbV1h3N6vIpAxhqJCIq0oTuLiHGP0CHDbDdHE5HD5UIRSJUi7g/XQNYTkWwwnBgkMqggrBuFO8Ha8Eo5MQPDVAgjGcabqTvG1TtGByETtoN9uWMPQPaQdC8KxNTxpwv2iNbJ/c+WRwFdN9jNn91WtXs581O2QewS2KSArHkG1JyVZaNnm0XA/b+IgA00Ns4YkOfYzXHjefps0yWtCCMUhWUqfh8SwaH3vMcHEHAbDNVjSxuR0FuPeimNIOhUAVli8GN+3ZqBcZ80HkArHB1HzITC19/vFWum0vIhEYzMRvau59Kv3I8zekU9j13akWT29rY28k0fWwnDkfP602y8JmBUQ+294d84k/vBpvtiFi4/GJvfSsffS2SFqSro0iRKKQpkdZlupUKQf/pRIDcK+aQAsiUDyVmn03F/diZsNviTrNVrkuNc/5wos7ik723nKDhZzIfR7H27lXtLhlJyxRSADeJSSJRQIom63rJ/F5abJiPob1u07DWzmMzrCKX6a3nhMPDO/Z8HkiO4Is+LMoIumOLcszMwt2tJybnLWQTcY1pa6Qvj7Abi1gsEgs0mYX2A7SKEbhXflmZDKcDV1dIET0wAAlTuQyNNGNE/F4DslHKgvu4Ue3N8j9tqlYRbnABGLWP9zxePrQrU9h0eoZKlNp2cSudNkZ69Oqk+tpuYVEMTCN2HgAOuUEBrAdIz5uMptlVEQOw1AF54y/nA5i5uOE6xe0AgBp+0gnNiCK80QqhLVYxIoyG32RTjKXHOoqL5D9WmyqN82R1hqPcARKgEw4erDzcjsTufXRa9JOKUVqRSLFKgnBu1fpeA3os2KSYpbEoW2WXEeRyLA+33333cEpHE+IexKcYxKJT6IQ6eUYjj0ksrwrZ5sJybPT/fffH2kZTyK5QOt18lmsWzKRaDOjO5pEEr0ZgOoDAalrqCpryDO1iSwSNdn0DlyhObnE3kCALrQpj4QzFIc7p0kIBrQMApAYavSoEqAVZsiMPxgBcYisYZoTPa8lEb3MB/ndLYBI253bxxD9RjmDpMaxD223FtpzV2qsyJseMK0P5+tP+wj7sXtG0h2cozi0hh1mZBlPPpx+6KVb0uloDQZMXWRE9GJPSAbVnB4LZdSXwzUpDyUhbypIWYwajqyeFe66+QKDZrlJk/zG6YUfIq2P3XIoPdVmC2xPE9o3mbatr6eXndubVi1SPi/FWuxdpBTZRWKlEEUiJZKRkZEQp+xwHdi7hELEFa8UqfyukwgkLonDeBo7SlQe/iNH0J7LcYZxFaPkNqY5PjYeB0RpFaKf8fwu0Tp2kfAWw0WiDFGSJfwckTjo9W3gOsDJ8orqO8cJNj4Nx9VmQF2GoyognQ9QfGrx49Fuco4YQ5AE3jkuv04E7sTjKeFHR+Bk8dSedjpnTU86CX+RP2uCcjyCZ27BPWbzzYNnnftKyaAMI4vOLotpPod6OOZRsjJWub3JLnninpuJuz+yauaIabnx1wbhU3dsT5+6n3HMSk7Zmh5NJx16JF171Za02QGGXCM4HIyHMc40lgAMwoKRteFEHrAp7Iq4KEzABwpJOPNA0TBN3ubpZV16m2rEEubo7DLJe+4ESMd4pNSAQ8cunLztgbj/51fvSncfRA7n6LWBkV3pledtTFefuSGtEJaE6W3mPbwmWP/RD/EDCDhjH+p4OxN2nmcxlUQbyXNfyNn8trv4cuqppwZii6QSiX6KP77LQbzLMc4///wgCgnKSw4hUjsGueqqqwL5R1Gc+G48iUSCkRD1G8Puq4xfDuw/gFg8GeHOOuus8C9czLFPdrb+kd2SOckMQh0pcQqAWNJk7cAYmNVLj2CjCmBxspdeXMRIaJBUx8YyUDCthhbG9SeOLDxxISMEzYch5jRI8sWn2um/feiWtLc5lBrLVqRlBx5LP/d9l6UbNnAIJuGd33AXSjrj+AniJC3HGCKdZVCjFeJavHu0Ap4hcmURLZOKJOeYAplXuuWvFdwll8luf4DErA+HGEadRJyx/uE0sfrUNM2Z0AznqTsIAEGbhZv6ycEsWkt48OD+x/YddiiD5COR6ER4CRIgwtUgOkpiuSaphJzR0xzkPHnmpZbupgcZxKJgOVlYJjrvxFmxIL/zLSRPPr2YGoxhhTDe2JLag2j24H6Tw+uUDCOM2rhejEMTJ2MdJB13MbTenJDOybj80F4T+A1GuXg/jLONRXCdCK8mS+6we/fuUNGKuCKryC4n8F1uIefwkmvIYfxuz18G655D88CDD0SYEn6YPZzlNoY/ecPJwbGMp5WwhCER+l1i0sm1du7cmU5iEaEjtyO5JRGJmVgQCUWKteBzXcwSsxt96F37BtNuAtw3Ct9QM0f8IeKu5HEzmIxOiwa1/xJx7Cl57HLWqaPX50XAHxppp0dHxtPBFRwdBu4MH5oIrVONQZgE4cBeZzvGgiB6GgnGHQYVt0QgczNt/okB8hMlGjVQ07A5HLdj4kzfDd16zBhnOZoQtygVmjl68xo72E8zDxMHArkXp4SCaDjMAqbo8xljjNUG0oHWUHoI+P6rv7437XgSaMMBptgp8dXn96ffeP35aaXUhpMQC0yyz+xfv8UWtpyadUCVPEQV5MWHAxxLdz6Ie2ofe0MTrtkcy2kxt5WhNTut8iaeiDOKRvbyEkisUkU0kks8+sijaRXiq8QiEd1+++0x0DashOWY45STObSaHUXLIN20RfqLL744iME4Rasl8jueUeVseqYhwamF3bFjR4h9lmkzxwOq3epjSblKqCO5JRGJVOngqmQue5zPueG2wBH9HwPYf/jh29LO9nJWKwIcDA1fdtHm9MOXr0zrY47BrUKj+WaSAickmILINoS9Uhut0eAwSD20Kk0NIc7QPTYHdnMOYSUmQVGKFlIFv9xnCI+nSD/8Ffd49blwGj/6bEoRJkIfu58gkqpXiLqSbxALWTasOCCJMypBekVSnQN7rQcGHUdBSENurIDFAKeJp8mVnH7ePImPqEFB6kP9qOLCAS/gFEyMdyf35nPmECrg3uXpLkTY//zZ3enA6AHmV3qR+1vpDWfX049cvTH0X3SR0alkCD4zNdtKDiSC6hS35Baqc8UdO1e/n77l9BC97PXlBg6ofXbs4l1icHyhSOWz6YqDEozfRfhzzz03tFqmK2E4SJcIJBy/e5mGeZtvmSdxQL+M8ItxSyISEd/CeDkYW9gx8KSXdJtVzh9N33hqKj01gEZsjDUGB9rpeZziFMcngB0N5FYtdzMKk6KtVb0gXc00BpW1p/VTy+PONCdBHmnTmwa3wR8IklaF4gQMUqnSI3pJlgfimhBXaJnESFyYZ4SqmHcjHEOnSjaLhJExnYIFsvfmQqRRLhxD3nwUBjLCK/0OSIKmjHHFOXDN+vghyoi46oYLUMAYavRx4OF+BFqX9AwwRqla17Mhg4Wagd/ncbm2tBn13os8d+feAQ51Bb6MxZBV0lUbs/mMfKynmldZCEIFOb3rVM2K6A6uxSGR1XfnNuQoIr33FWweoiuTiNoJims60yguOmDwT22Wl6KU4pk4uWXLlnjWrxCY8SQgtV6hJpZEwRNFrcUM3pdEJPYM57GCTFHrsA7sjrEFgWySCc5+by5bF0je10SXXUlptp3qUMAe/3PTdD7C+J7NXscsRJA7npiGHbtZs3MBrUnObqfnDIIQ1zuYl/FBBVUkAiHYh/oa27J2OlRTzZccLdp1fjwi3NF05olTbR2Dec92R5CigA0pAo3U/RwQ+nvv/UK68X7kacYOPVg6XLF5bfrl152Vtq1YF2Mvp/VNyYnM4WHU1Ux1xibQEwdASI6Uo0LFzslwnukY+3fzPNvlvX1bWqpBCVMcBdfug1NRvJgz6sv8LM5Lp2zddDc7HYoOARQnkj/wwANxefS0Pb3fXUylv5xh+/bt6brrrovnO++8MzRRIrXmJYpPhWtICHICiUpclGPsQIzSz4G9JityHImsdObiquElIInmnHPOAR4V7Eshj3BfEpGYVtFuSc3zZZbxKxdCUPnuoNxpPanXw3gYzweyxtb+9J25mQlY9aY8+RL/xo8z7HiPtKlgnQmHBpzEtmigGJDO4ptcxNaruEmPz/xbmnjmLpFgMhniRw4WXyOaM9MabSiy6fusXHcDLNBr53RLDtZe8cQLZLfP4Ek+3cNA++n6unSQRq+v5JDVA7vTHrjGNEjsoF46F6bGm5hiPfkk2j24UJ3TuDSX0QmXbksFz2MBQBleBqhc9s0wNr02A74mx2hEPhCF2gvbU/WLUIpMS+RF3EVcRXXHABKGxCAuibixgw5pSBQShOpakdwxTBHZRHLjyXF0hjOMRCBHkhDkUL7rL36avvfCZY7YuUfKz/xZFJEoCxbi8DQgM57PzfgDZmRfezAz8IzyIAAa1EkrtU/BTBCwi01YTs90c9rK6baNb844ly/m0UIT5HFl3pW32xVROKJQ5g48IwLSeDSs2qBQKJCWiCU3ksAJmqZQr9YQWUxfNPDe4ki8QUWeZ+FEMJ3peC3sREgRXFjBw+KyzF4Z8S3rSI3tmgY87hspahgEa3BmCoRiuKgnD4abduDP+KUFp3Aep6UWjQKUDiina1ZVqaKAWbcj8udcbS/m4wG+NtBtdOz5ACdHakEajItm2iKiHeZHZBXJnZMovb+ILifxW0FqkVwE3rhxEwidZ9yHUFFLWEEklNWO0bjioXedbVgIzDQddxhe/2hf6irumk8hssMUd8FPiyKSQiCmIlKqfVC+tCDzuWh+G92PXUGiXSpuobeIYdhooPhohOxmMZWuRPJ5fSIzqUtJIEMcAESYWownMmVJIOpK29iMtBkAZbTKxXHazhOq/K7BYXMcdgzgG/TQvWasNulYO+tLHfKckcicka/yRejJNlx9LebICSss6+0R1ogjf7dWYVxplyC/QWXKGKGHDiOUDoal6jPwm1uXue/mGC1A/Ay7OtwmJm2FUQS3nFWnodIjR6m+lZdn3gsXkCAKguvnc+EEInEZl0ggzpir1ZLjGFaxSzxraqRp58CzBNUt0pWc5+MUdgrGKeEXwtmSxnz3RRFJRAT40WuTqTKgsl+h4mcmHBgw27sbsp3PeuYXn/JbJ2C857cZv5wowCJavujjpAc/5A4mkgz6NVp1ZeLK4fKMOwnw7+KkNizcYYBSOfa/pCuW5ZyO2W+Y0JC61feSYMgzV4GGBc69lK2B6rcOt2szodeit/S8QsPYSUgUFjRX0frkS7jYAYXz5nXE+uRhbMDNtBnMeVXnbnPvBm7JNWdxuF8JRKNYkV8EdUBtp6u/YpC9vGKVs+wSjPMXEohzICK9cUR0xybimxrV7k675F2IobyXeyGKcte/w4kqCaSEXei+OCIByJkxAxwKLYFYsYWJJHhJbvvImRaq2iwwAb/cdjZwFgii5wvP7rA2xhwHwFz5l3s6kaG65gaLPEwfxOK5kw/Ppc9ugpWH7BnBNftkv3B0EUiJMd0zMo4AR+8nNAoF8Uw2lzMTAOWlnq5Z0Wq3BpFomtNEkzdNuaZoXFcU9DnIJmZOxQILS+GTOxFTXaxTz4MimQtxBmKM9SzafcmluHvMHNI97zxHWGErdzk8oERoCUA1sIThPJuTis6daKErIchV1GSVjlfCkWCcPxH51Ug5u344100E3eFMRycnKWG8exWc7g4/3/PiiAQ4CBITNlOvw1kBKwh0wy6DEYk/WLUom50ihio4056hovwUXKIE7LrnkIxHxA6SakItHkYay5+QFnJe+VuPYhYaxCDAQMrynXxBunHC70P6zlZCGUVs9pMZo8woHLsyP4qPMXEXSFiVteJeoqp6pF4oV8KdpizTaAftDBqYifTCWXoRh0LB0EFWGpxKao4vgofWT/35ElwW9/LkoPzU9TNhOW1zAewsygpy5/gzepWJ28NlI844OPeus2MV8eUirvOwwRyol+/daRXCKN8cV4TYZJk6Dd0d45nP83Gdkt4zQ8/vsygisVJeFtBMncGcby1JzlwKlaUBUCqCGElvZ9NDDIHE2dDQ4hgm5EyeVTXmU2irsCCJeKPz1PM8bCQVelFlcec3oDm+8Be9QtZczeYsApXGjnRoWgoWsAXJNMNnpiF9+Ks70ns+eU+qr92cJkf3sRryYPqlH7khXYcxWGiFKKTcqKb9WYfdIQaREcOA7CpRxHCxvp2wWVchKkeXUeULxTJuaiHbKbrKwSyPl0huPy7tq+lyYwmTF2GhCJBIf+qAv+Fr2pBgQqCyqmn9Y0xiRyakTYSYBvQ9PCp/gQF3ivU0JazhieWoRoTIXJpMq4gSXY0KmYzkI0EtxYk7uoKc3rdu3ZrFHj6V8YJhJAS5iyJRt3+MSYgn/pX0DL+QK2FKnvOFy6Q+35fZfosiEjPqziwqUFq4Sq/z3YbBOUfoONoMnKSLjo136AztSUZ6iURwC3bbHFTkTkSR0fT5bnIIG1kbRmgnId2ArsY69TY2UzFRVnpWooVFDGGisWusLmSbzamRiRBdJsVR0rNwTQb0zkw8PjGUHuw/g7mcLSz2mkxPPnZLGoeNaObnzExNdm3ngN66znyNZbU+ap7NKzvQm8qKwGGWz4dQSjDYDRP0wHZ/cgHsjUW0fF44qk0q5bMTr73CAXG2NZAnWPPgnINIwXg5xTS2brq2i8GwQHDyj1QBFEQH8tcDmfGpESeDkPGWhGr+vSAZELXgqoiBc6fj4Hu0CpG0J6vDPTyNtwacWhBcrcYkssCT+6H1sl2CCDNEeVvYdXBjTpBCBAWh/exg3XfjdPt7soGu+JV7eFY/3fl0P3eH6X62u10MoSyKSLoT9lkiyRygogj8SqHMVkHB+QuNFO0dpxFtHHhijkRT9GHNm3vNnj6VrmM0Th8TaCAFjRAzvNynUGPSafBddTGTR4TB1JAAttGKNNnEXAEtlGbsZuKsQO57eQDpmIdDShgkHHfjglzjtK+cxoL0g3A1ZjVrzikMrkD0pp+eJlxlnzRISXsQbdpYElqHCe7ShPMz06TvuowJoCeCQqoAIG8FMU0609g/tQIZyQpkNL4oGpmDcMZp9Q6nyX0gG/WWK/SAHHYgIl6cJU5FbcRa71Bqj6IRgmpbypgE0DQllgHTofSSrzBqUJdpK0v5Wk3twPJ4xU4oNF8Qj+FccIUpZXCLJse5xTEYEQbTfcI0WWM/Rdk9KLcJPNS+NTlhdwLCcI6LmlIqOh3EQJ/yxe1bcAV3voUkjmnUJROJFDzNxJX3bpWb74XDhGYEhBagXn0gcli7AtO63ZsNjb9zLopi9nMyEBcm/X/tnetuW1kVgLftYztxLs2lM73QUk2ZqSpNQUKAhBgh8QP4zyvwCrwOb8QPJBiJijKatpMmaZMmjWMntmM7fN/aPklaJW2DpqCU7Mjx8Tn7vtd9r7WPYgD4lCoGPpJJmDZ8SZDxOpgMv4VBLbWaSo0MjCSWAWz+lOLr+iGipSbfsoZyTX0RKsAV+IL7+nC/m+pzywHJZrG+AkJgm9DmAHJDdD1UQUiLPlCYrkYd9tA9BYFcGut7N2xCoDSG3X2hwo7EkbIKLD6zJVw1GKvMqmI/AH6RyVcXqJfEeCHfTTcIW6AMLj0VMgcTZ0c8oyhfJDlQ9Jt2h3aTzuV5oE4uhrQfv3mzrEYJkVFfLTdObVMumCM5mTueBaEDiZzSHIfjTDuvjJC9rhrBMq9He9qLt6ezkOE0rmBNZ90/q56z7r+9V+9+ej4kYcJU2lfXVuNbJ7EyiSA+Mw5DhTneyApwSNEbiA9pYzuoZg25P/VQ1ELkYNrNCyCNcC2ZGnbSvoHkbIhVO3CY4dWg3kOAq6KrPI8OeKn7uI05UWe+fQSm/d2EU2osNLQwRAwXFqKIr1g7qKvWnlp/m/2dhTRYwCZTw7Ua4JDCi2ipizNgF4fJAbEKtKh3sRhwKNQr4vCzurefKltYW0CuGv4yTcQdwy0wh7GaQDptmiodouLaVFCdAbhA/w5uFG0eC9OGXYEJ4DH97uCWTuM7OOpRX7XRg3tmA8RAUQecst0R8RMcwc6PudhxP8SNneOjg6obIyOA9xhrnRNdant0CM6TehAyyvWGV8KoYfhA5GMxCo6ArfSoD05c299hDFNpj0HIXeQ9PYhYrwOB6b1iDSRmM1yDsF04FYRAPzsPvHC8TOG5kjByWirFrjefnRfoRar3Qazz1ns+JGFSHKgmPO3dpyVlPE8qVCYYA/jLBON/9VktbSBajZCF54dF+ny2k6oH8+gfgjULcNBOP6jNpd/eRZked1gwammN02ec4VsfE5+Bf5Ynf9RHjXSvPki/u4Oo09pjt5wYksVGuouYHoAGyTvkHeJjkOc+wRm/uS2PwrWfxa/0h+mHUL8CpNSYSQnjttKDuUH6/RfEmTfbcDK9Sw/SDBQ73YDCyhHIWxAl+ZN53PM/R/ADmAuQp04Y4hLPtZ5FwAmAMw1w/+JahTj4FqZlzALMwbWr02lZ5EYhmha2uIfzRPpqqZtuwF5rdUQXYjxuotN8gp41NWKTVrd4yiwgQv36diN9Cp4MKu1U5/1HP5ofMoc8hjIMRULI/hxlfnVjmG610CvqLwH8Yfr5MuGs9p3nzrux+ksDDq7GUfEm+1zjJl7Eiwfpp4u0OQTxqraJSNndSVcRU395+yB1+/yGcFQPaun+AhzoAG5CpJkSgKxIF/bzpNMsTZZ3N/60dBYwn4UIIttpZbxXfk62Izd9n1Rp/ekvh3/+4730h3uNtL7VRVZF4uztpes3l1KLmOiQeE9UJrdww0cFS9t2mUpOolgh5R4BDD2AbgjlewplKwwXJYE+aQaytsxFIxYPMOT4oC6A8ghCo+9SiblX+b2knCyTB257TOYe3q2abAVzl8iAuU8pMDNAZEL+Bw2gqN30HJfvdXxfFiZ5t+jDA/rQBLD69E8rmfC9T192aVN9wzQmeOkWok0r8EihB2RnPjhbA2V6IpqQb4MQ3Z8tyw/hPIxVqN4HqLeoSMZifdLNAYTiFuLeNAShKellfqXsm1zCU2M+LD2Aev+4xZUAiDgzYqe9X19MW1QyEMnIw1dUCpyDkJ3g1hKHcX0+PTQD7Tp3zjGujZzojv4D/NWIpTcuBQNygqlFXWY3SSg0d1dxvVcsHhJ0tYe7/SPuySRtExxNN/kswnsr7HwXyMOeSVDTenEBkrB5ErFKRFLyN/ml/uf/PuN7trae6sCZp7pMT00fwaN53ytJDdwYejOJxSXbBA7DwW4GQXk87qZ7TbvhuVWe3IFsb6ifnRIg4DoVxKtZSPJ9ougE80MAqqZSrcxEvvyahDFvyjJOnFfKBQnA45Xv8tVjlVgwEA5bcoVzsa6jIBsb2JTFA5x3APAqLh22WUHpdEp4e2OaBSA/0UuZG7ZWgB1u5OWdbUkE3ARF/A5AJl8y9t2Y8buoMDXAR8X2UCWWsbXgbLMEfWi6kMrbLsPmF0hugybaNwdO4OkqEExriESt1JglA+G+WBH4aGov6F+PA+t041DPAmGZ4yEfnMup1HuIfsxxFTH1HgYH8fpQYKdsCKD0Ibx+VaLITRhSmolL/oFJWtjsawh2lFG1r7ORRzR4+gLQaPFb4OkzlGkPztMeWIg6tGuxC5JKuHyzu0o9ap7vSh9mqCVAcGq153E0Ia1NAHrzm+9g/zTpadYqsSCIXRwaPMSiuLQu2tMnK6mzQ5SdcQt+vA9wBTAKdVDiHv5Wq888mMwdYEFAmk4NCvxGzKlLQC5XV55zkiHLH3MBMJf1UYYfFPRD7Pzqc3aDu9G+bYmfgki8/kDfca6drL32VmpvrgMmILom3gou5UIc1LWixcFrxLDN9bW0hjuG0X2eKxbYIovxOXUdjCAOIMSL9Y3UftW1J9xG2aYOoivoEojLx1jL9tZGernyXaqhB1mD1jqcOhiv+dFBAFzH92pjM3W2d9PXXz9M21tE3FNXRnZ1F6yL1DVm/M+evwz94sXmKyx1znlGOIbMD+YPpOwQ3dff3E7tlRdpdxVdLEZPPEj0jWzlGlvmI08fDEkCJqWk6ifOKMD8r4f/QCkuGb2L48e/fC0otbfbaeP5VsSJeN+FCwDnRyxiAG4tbe900vrqeuojWsV6QdEdTFzTrk1uAzR//dvf0zoLnlPOoZ1HsJHCR2QSeZ9++23a4TXblg/Cy4XX/s9AZPuj9M9vHqUnTx/TYUQZuJaWIz8O1QLRZyj4PidAIodN6sj37VPsjIOBni7ZB3mfPH6cNnjjU14IkIe6rAMeybdi62Fae7aS1lZWUm8X/QouVy6aTebpzAi8j67h2V976GTZVb4UIqzP3Lnu9RebcKdqesn8ePCGTxxlcB8IhOTBOJ0pOLzOjmP3beivs1YmafD/Szoe9fc2YoEeRGDm89IJGCP0k25auEacKeKBgBJABT2U1degTlJtN7lGmCgX5hfTwpxs3aMYQDKU1Aoi0fH7RNA70D+WCNFs4UJdQQQqgSAPQ/CqpHkOO7h+g5NArhh8JMmkDYDbHZxgFSx8cBK4zsJ8C8WaXoQkCMCoyEYt6iFaeRwX9H0JyxyAM2IMYxSlKhis8UGxzDyCjlaxWd7g5MtWRSyTIOh/axIg6wSRYfFO8zOttHiFsXoiCgqWJWLeDnEEhEsoBs4xF4sexYOPk/qKMnUB8fHlnKGsWbsbnQfGhnuIAkYO5aGo0zYZSQA/c8l3kz0fPQimMO0ViLZVOTtGjdC48A8zcXRCWt/ZhCNupi8ffBltOpYiJAA2Km1Trh61W+LjTedW3N9nKvIEAqbOo3AJUA6xl0p5pzhNJPYUYuXyM2BOVAAABmz4IUagR8xNEyKMKGOKY24meoMGWcHSCL6RJ/15pCJKuPBSJtsPLgGVjP01LGwinGptzpYB3s5pLlb3GWCt8+TFuqIamQw9tlTAgl/cEwUGyif0z5erToZnLeQQPaTCkRHjh+cEI2q5uTd5KuKaw08UoVhvlzdxEaReV2lxx3ACpEkrX3VWdIb7ojCjVNcB6qqWCpNURurOt60r/h2QT+LRo49NuUBQIlsn76SXXKQuHGfWoCUiHQtDGhHzokPMg3sfIubumLOsDkECuJ0u7PrIueuvdZBpZExy4lg1q7yQKUNB5syZyJ6puDvFfPxiImM6uQ5P0vh1/vFHLVFfrlqTcEFAUBHaa24jao088AobhcILPk2UfJ37RmxYuusL/NOZzPBylQFiABXGHKiwSZeWsqtxajsVas0QRhogiNuVZii7JNdS6Y1EHu/X2ZwLFxfbI1kiqp0Uim7Qv4YGCrrTx6Tc8Jh6MVxqYIaMSUHAmwBrxgZrO05R/aROy0zNXwHQMyJpoPBR5JmM2ZJFcKSM5oqvKv6KcobSHobCbRncSQi3lZs1MWJEd6LZPF9eRrOUm3XeyFAA/HERmfmnH9Ek3xTneI0hMtMtiAYFRQizmWgWrLzYCBIDYUT5L/+K+eGOYRX5mvtcQBgynXPiNWiODnoRfVZDeYuTR3L58/8vZzRK2hWp1eTm8bpxZ3JPoNB8TK6YfszPR9kQh0wZVUIwi99lhpPLFb5JPrW+o+ZO5shFX79DSwDqyXVXQY7iR53I5QJpuWyKIKaMxfnaAnwwzL2WbOu19ib9ypmyLhXX9PnoEZVYxua956LlZ/7nQ39V947rzk+PQZlsb6TIQbnjRk5kyMXjkSuFQEv9k17bnFn9x7DfmBKfXMgUtE3wZ0DqlY6vgpiqHhibzJNRcY0QwcTJPPuYg5wAd80HUOJS4jzCqkmh/+wrpvkdRU/P8/20/46mT3n8v2o3d+V4Lsp+lN+ndPWD3Ppvt/dBBvGWSmOGy2kW8CfXdUTVMnkryGFI8FJSZGgdE43M6yF315FjEKnTrq4Rl+lyBj6yGYiT9tkCcO9viAypJ/YI2FdkFWfKVHhmr9hizECBO7T7Cz1cKLY29tJKX6co/JSax5hVFrz8vpyBiz4DmsvdD9NxVU8SRa0GwWClW345vqKO60iBDFaDcxTu+OI6XkFRrHrOFRYQD0ZQjL1MlzPwsc2A2m24qAD/uq7ITTyiqYoxJAw/MWCYh8hxiO3bXdyw/3u+USij2co0hRlpn42ly3Q5Ax/bDGjFkoNoxZvCHaeBBdaT6MO8jV4eij2K2b8B3vM+kxMLSAEAAAAASUVORK5CYII=;" parent="1" vertex="1">
          <mxGeometry x="1040" y="180" width="99.15" height="64.13" as="geometry" />
        </mxCell>
        <mxCell id="32wc3V-l8G8s6lL-Zdti-33" value="&lt;b&gt;KPI Dashboards&lt;/b&gt;" style="text;html=1;strokeColor=none;fillColor=none;align=center;verticalAlign=middle;whiteSpace=wrap;rounded=0;" parent="1" vertex="1">
          <mxGeometry x="1025" y="258" width="140" height="30" as="geometry" />
        </mxCell>
        <mxCell id="32wc3V-l8G8s6lL-Zdti-34" value="&lt;b&gt;BI Reporting&lt;/b&gt;" style="text;html=1;strokeColor=none;fillColor=none;align=center;verticalAlign=middle;whiteSpace=wrap;rounded=0;" parent="1" vertex="1">
          <mxGeometry x="1022.57" y="460" width="140" height="30" as="geometry" />
        </mxCell>
        <mxCell id="32wc3V-l8G8s6lL-Zdti-35" value="&lt;b&gt;AI Models&lt;/b&gt;" style="text;html=1;strokeColor=none;fillColor=none;align=center;verticalAlign=middle;whiteSpace=wrap;rounded=0;" parent="1" vertex="1">
          <mxGeometry x="1018" y="662" width="140" height="30" as="geometry" />
        </mxCell>
        <mxCell id="32wc3V-l8G8s6lL-Zdti-36" value="&lt;b&gt;&lt;font color=&quot;#660033&quot;&gt;Data Source Layer&lt;/font&gt;&lt;/b&gt;" style="text;html=1;strokeColor=none;fillColor=none;align=center;verticalAlign=middle;whiteSpace=wrap;rounded=0;" parent="1" vertex="1">
          <mxGeometry x="136" y="180" width="140" height="30" as="geometry" />
        </mxCell>
        <mxCell id="32wc3V-l8G8s6lL-Zdti-37" value="&lt;b&gt;&lt;font color=&quot;#00994d&quot;&gt;Staging Layer&lt;/font&gt;&lt;/b&gt;" style="text;html=1;strokeColor=none;fillColor=none;align=center;verticalAlign=middle;whiteSpace=wrap;rounded=0;" parent="1" vertex="1">
          <mxGeometry x="490" y="180" width="140" height="30" as="geometry" />
        </mxCell>
        <mxCell id="32wc3V-l8G8s6lL-Zdti-38" value="&lt;b&gt;&lt;font color=&quot;#3399ff&quot;&gt;Data Storage Layer&lt;/font&gt;&lt;/b&gt;" style="text;html=1;strokeColor=none;fillColor=none;align=center;verticalAlign=middle;whiteSpace=wrap;rounded=0;" parent="1" vertex="1">
          <mxGeometry x="810" y="179" width="140" height="30" as="geometry" />
        </mxCell>
        <mxCell id="G5m2Z7axFYdHdQ9XGcFq-1" value="" style="outlineConnect=0;dashed=0;verticalLabelPosition=bottom;verticalAlign=top;align=center;html=1;shape=mxgraph.aws3.glue;fillColor=#F58534;gradientColor=none;" vertex="1" parent="1">
          <mxGeometry x="460" y="381.21" width="115.5" height="138.6" as="geometry" />
        </mxCell>
        <mxCell id="G5m2Z7axFYdHdQ9XGcFq-11" style="edgeStyle=orthogonalEdgeStyle;rounded=0;orthogonalLoop=1;jettySize=auto;html=1;exitX=0.5;exitY=1;exitDx=0;exitDy=0;entryX=0.75;entryY=0;entryDx=0;entryDy=0;strokeColor=#00FF80;strokeWidth=2;" edge="1" parent="1">
          <mxGeometry relative="1" as="geometry">
            <mxPoint x="504.0150000000001" y="443.47" as="sourcePoint" />
            <mxPoint x="500.78" y="580" as="targetPoint" />
            <Array as="points">
              <mxPoint x="500" y="444" />
              <mxPoint x="500" y="512" />
            </Array>
          </mxGeometry>
        </mxCell>
        <mxCell id="G5m2Z7axFYdHdQ9XGcFq-2" value="" style="shape=image;verticalLabelPosition=bottom;labelBackgroundColor=default;verticalAlign=top;aspect=fixed;imageAspect=0;image=data:image/png,iVBORw0KGgoAAAANSUhEUgAAAGsAAAAvCAYAAADkdjR2AAABPmlDQ1BJQ0MgUHJvZmlsZQAAKJFjYGASSCwoyGFhYGDIzSspCnJ3UoiIjFJgf87AyiDGwMmgzSCUmFxc4BgQ4ANUwgCjUcG3awyMIPqyLsisrnUdJ9/dORamODdwWem5+gxM9SiAKyW1OBlI/wHixOSCohIGBsYEIFu5vKQAxG4BskWKgI4CsmeA2OkQ9hoQOwnCPgBWExLkDGRfAbIFkjMSU4DsJ0C2ThKSeDoSG2ovCLD7uCu4ebgQcCkZoCS1ogREO+cXVBZlpmeUKDgCQyhVwTMvWU9HwcjAyJiBARTeENWfb4DDkVGMAyFWCPSflScDA1MuQiwhgIFhxweQNxFiqjoMDDzHGRgOxBYkFiXCHcD4jaU4zdgIwubezsDAOu3//8/hQC9rMjD8vf7//+/t////XcbAwHwLqPcbADpHX1TcK9I5AAAQ90lEQVR4Ae1bCXxU5RH/b3azuUg2l4QjASFRAakGkbYSDgH7UzlEagjFA6RBrALhkqtGFETA+FMROQIBOaOtrcRaESwgEKBc5VAQETAXCTnInWyyyW52O/O9vJfdbGg2B6ktO2Hf8b3vejPfzPxnvoeqtLTUAic5zIGiU3tQdeYf0HbtCf/HXnC4XWtU1LRGJ7dLHyVn9kG/cRagdYXp3NcwFuehfdQCqFzUbcIClzYZ5f9kkLKDW4WgxOto1DAe/hhV1y622ds5heUgq42VeiDtvG1t0qiCxDdgqqq0Lb9Fd05hOchYfU4qUFUt1Va70lklri3XfkDJgUSHerFYLDDX1DhUt6FKTp/VEFcaKKs6fwhg10QMV4c/CktJHsxXTwIaDSq/2QzjsIlwdWUh2lN5UR4Mp3ej+tt9UFWWQhMxDoEPj4dKJQncvkXDJU5hNcwXm1LWCFXmBcBFMkTa7n3g0TkMhXFHyIdpAX0J8jfORNCUD4QwDXkZMKadQ8WV0zCR6VTlpwM1JhK2xO6av62E+Vcjofb0sRmnsRunsBrjED03m4wwkgAI9tFPBW2H7vAM7YOiiLGwnEwSQqw5fwA5Hy+B+dJR4EYW4EqsJeEqulMrKDGcq7ZZCNLpsxwQFowGWPRlUk0zKZMuQFwHRc4D2nWQykkY5hMkODKPcCNtYy20UGX2c3yWyWiCxyOT4OLmKZc4fHYKywFWWaoJ7ZkqpJoaD7h4+4trjac3PIdPoWdk4pjMBB745+UH9b1D4DVmLrTR75J0PZTn2oFRCHg0WmioVOj40WkGb8IrMzHdTL6oPP0Syg5vg8pYJTHYww0qbZ1W+A+KQsXFI+TTvodrv9FwD38EPl17iV4NhdnQxw6TfBVrV8cw+D9F2thMcgqrHuMqSwtRfjwJppNfoKYoF6iugIoABvsqWGqgCu1HANCWbR1/H0dmT034oQ4N1hBEz1/zBwVUqAK7oP3s7dC41wm63tCN3tqO2mj1/88KFTnpqLpwAJXnk2FO+ZcNchP+xsyOikxZcB94R0TaMUGtdbctI+HeWB8D5FwVQoRXAPxfWAXXJqI/204pSqhfcLvd66+cQdG7z5MGkK+Rc3x8Zm1Su0HdPhia/uPgF/FbaLRujbLHQuYz58/LUXPhELWnfgiyB0x+V0D9Rhs3UuG2FpaJgEHxppkEs5lLxNhaUv1iGHSDn4E2KARq7wAb8ybXudm58NBfUHP0T9SdBPO9XlwDd4L5rUG3NRo0k3mz1Bjt+cjorzgLFrW2SYLi/ioObiP/JrFVFRQKv/sGNzlTYT8hqaTVhcXRfnV1NSorK1FVVUXW5Oe7Xaal7IP7UwvtYLTl8jEU73gNN+ZHIDtxCQyFOSIwvhkT5XIXiq18HntRMqFUaCGfVZpxSX7c4rOqNTcfMzIysG3LZpw7ewZGEhijo6AO7TFn7gKEhYW1eLK3ogML+ZTSC4dRtnM5kJspZR6sB+IYqp0OgfP/ikq1J/z8/Kyf2l1zdj4ndihUrJ28ULXt0GHFAfJ39UCIXcvGC1pFWKxJHyfuwKaE9WDIyitMJouZ8moEe2NmzcbYqHGtZhLk/lvrzPMup2Sr/vjfCBGeBjiuoqyElmIn85BobN3xMTEfmL+QNLERKj5/BOUbXpZqmU3wnhAHHeUCW0p1XG1mT2zmPtqYgA3r1gqTZy0o7lLlQvEJ/Vu18n1c/vHHZo5y65upCbnpfjkSnWIS4P/HL+DScwB085KQ0WMURj85Bp/95VN07tzZbiJGo1G8t4XhfS359o4Agu6W7lw0KN8TT76x+Vsjcr8tFtY3+/cJYbkw+iEy0eR79OyNgIBAVMv7P1RuNFZj3969os7P/eBJcL3TtPX4MvkYYqa+RDlZBs0WdA4Otpm6wWDAG4tegyE7BbnvT0DRkc9QQUE1B9A+T0yll5bSUJacFBTu32rTtjk3LYLubDq2fLQJWk5cErlQfLJ2/Vo80PdBcb9500bEr1sDnc4XL0+LoRX6pCj/XzkcPXJYMttkGUzE+KCgIGXqxcXFmBUzDee/+xYLZk6D6cdTMF09A/0nGhQE3wOPewdB5RtICeBisedlSP4UlqHPQqWReKV01ISLFgmLfdWN/HxluLvv6aEIigsnRU/GoUMHsWzF2+jUyd6EcB2Gu7xC2UQKM0mrMpTASK9eveDu7u6Qj5MQaBWyMrNw9uxZ6PV6hHTpgj59KOPg7U2xaV0MxWPWJ463ZHPGzzidxG1ys7MlM05lLjSvoA5Shp0X6bK3luLKlcuoJkuSU1IBD5qrABRUV3X9RxjoZ02WokwUpF5E4F3h1sVNum6RsJhJ/JIyXfz+PL7Zvx9Dhw2Ti7Bl2w7luv7FhQsXsHrVSlz64RKqDJzVpiVMZKE/Dw9PPPDgg1i48FUE3nGHKG/oUFhQgNUfrsKJY/9EYWGhaKuifrgPrZsbgsnPvL54Ke7p0aOh5kja+Rk+2bFdLDoGb2ZKuE5+YYoAQxWVtZl2aulFQtfpdJRgN2Exmb7kA99AQ3tWLhRTlZWVwe3eYXAhgAINvYP13pXVqJZiyjW2gFrks3gb29dHpwzP4GLFsjfx01XKif0HYo1M3L4NU6KfF2bEZGKYT6uZvhjiH69s9nHHjx7F5OhJyMzMbLC3E8eP4Xdjn8Ke3btQUlqitJX74O8dOJyInjQRhw4csOsjfu0avLl4Ea5nXxfj8TyqKD4MDAwUMaLsc3lRdg4OEVq+KWED9u/bKwTF/vnVRa+TNemLLi++B/+39sLjt3OhDvs1SdeXUk21WyZ8DuyMwPCH7ebQlIIWQ/eEDeuxcf06uPL2di2VlJTgi1170K1bN7lIOfOLb6QX/oh+zFQmc42ZAukqMom0tFmrPD1tzJ+W7PyufxAjPGr3hahW8qFDmP7yH+Dt481dCBNkrKYdXdrVZdJSHo9XvkyutDu7a/fX8PTyEkUpP/2EqMgnydTW9ckPKvUVSNi8VSC/8ePGinkx0hs9JhJhd4UhbsVyWkxqEqYB8xbEkgZGyUPYnfNTvofh1E6oA7vjjsHj7LL1dg0aKWixsFhLZkyfKjTEeixfX198sHotQkPDrIuF2Vm2dAncyESx4JhZs+a8gvvuDxdmhv3NqZMniCnLFIFxvTffWk7m9RHRF2vL8889LTIlXKAijZ4wcRKGDBmKANIKrp+Rno5VH6wkP/iDaMN+5qGIgXjv/ZXi+awZMTh54piICasMVZg+Y6ZAe2zmBgwchNycHEx4ZrywzNxfj169ceXyJfF1UmVFBaZOn4HfT35B9N1WhxYLiyfKZip64nMoKy9TAmJ+wYCAAGxP/BN0JDgmZtiYUSNQWETwlqh9+yCsWrMOwfUgMT/77rvvMPWlKbRDQfk76usX992P+A0bRR/RkyYQ4y4LYarJP7yxZCmGDB3KzWwohxg+esTjpPXSPlNZaRn2H0wmbfTBE8Mfg75CL/oO79MXa9bF27RNTk7Ggrmz696Hg3uOGYmifvc0Yki4bU0t8lnyZJnZu77eC52PJBQu56xFfn4Bosin8Gpl+jwpCTm5OeK6olyP2EVvNCgortC7d29079adhCVlQBgisxYXEPpMS00X/bMQY2bOblBQ3EcHQm/PTnxeCJjvXcksZl2/LtCnXl/ORQKN3h9unxXPy8sVghSV6CALiqy08FFyeVueW0VYPGEGBavj4xHgH6jM34VWYhGhtWSC7yywbdu2iG/rWFvuIwbdHx6u1K1/wWCF65hJIEyGSoNw+rziJeTIvq4GAwcNqt/U5n748JG0pSQtFn7AbRi9saBlCgsLlS+V87kzZxQzTBcE5Wv9HynXgrlzhGYrldvootWExfNl/7T8nXcEQ+T5c8D8T0J15eXlyMnKFAxgIDFw8OBG4x8DITPikyCdr04AjOSDB4SP4kJfX/9GE6sMKJQUGMmHM+3lZK7l/0zA8VRwSIg0iNXx6pUrirBc6Qvc6TNm2Qj9nbgVVrXb5rJVhcVT7tXrXsS9u9Im/mKTwsLi+IeJYyD5WhQ0cGCT96+TJwWjWQv6/fIhob2lpBVsYrmM/xRBNNAHF924kYca/uKIiANYBiClhFYttZ+HaQhp+vtLn5aJSnSoIACRmZmhCEujccHIUaMweEhd/PjtubNYvfpDuUmbnJstrHzyHUvfXCy0pv5MOe5gqCwTZy+Ki4ugqs0f8mr+8u/0QQqZpJvR8WPHiNF1QaScqvL39xeCYoGVUWyVl5d3sy5E+Q8XL9KmrRQiMPT3IXBx7VqmYgY9PNwFMrXuhM2knhYXEy8Kb/LFjF6nxcxQ5swxZuLWLZQxOWPd9JZeN1lYDK05oI16agy++vLvIgPBZTKxb0rcvp1eSvITnFPr80BfWs2lihYwo69lpCEpaafczOZ85PBh4RfYBjKz/Pz8Ff/2m0fpO3MqE0TPef+MNzrrU3p6Gk6fPo1TJ44Ls8ltOlA2g1NYqak/WWmNujZRW9dDXm6uImBSXpH+4jkzkHprRZwyPseJsQsXiMxJXetbd9VkYWVlXsPK9+JEsMgmKCMjHZMpQ5CakiJim0Wxr2LzpgTFH7FJeah/f4HirF/DjZj29rKlWPRaLHKJOUwcAsx9ZQ5mz5hG365IU+Pd5lUUr3nVBrMREQPQrl07UZ8Z+MXnSZj03LNifM4zllCCNWHDBox6bAjVseD7C+eVRRLaPVRcZ2ZcE+35wHEegyNryqacoKY2yGcT2pPylDINHvww3fcWKJXLSkqKsYLyhG1BtrN0YMQuXe9Ep+CuxPwbSm0W2LjIMeJeQ+ZBZjRrBm/aselJTU1R6ssXbFr2fr0He/d8RbGQG22pGKitWuT0uE4FaewSCoa7h9ahNU7Mjn/6WcSvXS3qMaS+Rv6Fx9fSAmC0xxkRkhtCQrpQcJsNTxIua3zfB/sJqJ5KWseCFtrWsSNlOqQ4TJ7X9esSEOJ7NtU9e9YJi0348rfj8HRUJCoNkkYfPXoEu3d/hccfHy53cUvOTdYsNiNz5y2wmQy/OCdN+cfaxkxgnzVz1itkAh8QddPSUiV4QWaFn8n+Sk0axHlB/gJWCJra87MAcvpr4hPIsT9hNxZnDsaNf0ZsW/BY8vg0sBif00w+vgFivFqDKebEGsKankcCZGKhWgtCHigvN48sg8QaNc0n7K675UfifAcllmfMnkOLq0rc0+vjtYXzhXbbVGzlmyYLi8cfMHAgPly7XjhhNlNiJdOLm0wUw5SUUYa7F3Z88mdEjh2rTDclNZUjZUJmZjz6+AjEvr5YMJC1x0h+jZOm+rJycZ485SV8uvNzYT6VDupdcIqKtdaX/BlnJrgP/nEqqLioCCNGjiZQU4zykhviuYFSSiEhwQKQFNC3FtymuCAXXe/sVq9nICs9QzznOjznwEBbtMgNho8YScFxPzKDJaJuNeUl578yS0kA2HXaCgUtSjfxKmW0lUXxEwtM5+crsg5d77zTZmoMAIYNGgAXcsgslHl/jEVkZKRY5QwEGFkyYmOk16VrV3hSItdRYoh/nbIS2fTjJK6fr5/I8XFfrKEy+GHtY1/HmshhhExcVh/+s8CNtYE0P5N9pNxGPlv3L5c11J/8rKXnFgnL0cHTKanKuTjOkLOAEz/51MZpO9rP7V6vWWawqUzLIpQnfcdAVoUad+zUqaldOOsTB9pEWGlpaVCT0+ekrIdXO0oT1SV8nVJwnANNhu6Od11X093dDf37DxAF7TsE1T1wXjWJA23is3hG7NhlYmfvpKZzoE00i6flFFDThVO/RZv4rPqDOu+bxwGnsJrHt/9Kq38DIrT3zombn2UAAAAASUVORK5CYII=;" vertex="1" parent="1">
          <mxGeometry x="490" y="416.47" width="61.47" height="27" as="geometry" />
        </mxCell>
        <mxCell id="G5m2Z7axFYdHdQ9XGcFq-10" style="edgeStyle=orthogonalEdgeStyle;rounded=0;orthogonalLoop=1;jettySize=auto;html=1;exitX=0.75;exitY=0;exitDx=0;exitDy=0;entryX=0.5;entryY=1;entryDx=0;entryDy=0;strokeColor=#33FF99;strokeWidth=2;" edge="1" parent="1">
          <mxGeometry relative="1" as="geometry">
            <mxPoint x="516.5" y="580" as="sourcePoint" />
            <mxPoint x="519.7350000000001" y="443.47" as="targetPoint" />
            <Array as="points">
              <mxPoint x="517" y="581" />
              <mxPoint x="520" y="581" />
            </Array>
          </mxGeometry>
        </mxCell>
        <mxCell id="G5m2Z7axFYdHdQ9XGcFq-6" value="EC2 instance contents" style="points=[[0,0],[0.25,0],[0.5,0],[0.75,0],[1,0],[1,0.25],[1,0.5],[1,0.75],[1,1],[0.75,1],[0.5,1],[0.25,1],[0,1],[0,0.75],[0,0.5],[0,0.25]];outlineConnect=0;gradientColor=none;html=1;whiteSpace=wrap;fontSize=12;fontStyle=0;container=1;pointerEvents=0;collapsible=0;recursiveResize=0;shape=mxgraph.aws4.group;grIcon=mxgraph.aws4.group_ec2_instance_contents;strokeColor=#D86613;fillColor=none;verticalAlign=top;align=left;spacingLeft=30;fontColor=#D86613;dashed=0;" vertex="1" parent="1">
          <mxGeometry x="420" y="580" width="130" height="130" as="geometry" />
        </mxCell>
        <mxCell id="G5m2Z7axFYdHdQ9XGcFq-5" value="" style="shape=image;verticalLabelPosition=bottom;labelBackgroundColor=default;verticalAlign=top;aspect=fixed;imageAspect=0;image=data:image/png,iVBORw0KGgoAAAANSUhEUgAAAHwAAACvCAYAAAA/tLo/AAABPmlDQ1BJQ0MgUHJvZmlsZQAAKJFjYGASSCwoyGFhYGDIzSspCnJ3UoiIjFJgf87AyiDGwMmgzSCUmFxc4BgQ4ANUwgCjUcG3awyMIPqyLsisrnUdJ9/dORamODdwWem5+gxM9SiAKyW1OBlI/wHixOSCohIGBsYEIFu5vKQAxG4BskWKgI4CsmeA2OkQ9hoQOwnCPgBWExLkDGRfAbIFkjMSU4DsJ0C2ThKSeDoSG2ovCLD7uCu4ebgQcCkZoCS1ogREO+cXVBZlpmeUKDgCQyhVwTMvWU9HwcjAyJiBARTeENWfb4DDkVGMAyFWCPSflScDA1MuQiwhgIFhxweQNxFiqjoMDDzHGRgOxBYkFiXCHcD4jaU4zdgIwubezsDAOu3//8/hQC9rMjD8vf7//+/t////XcbAwHwLqPcbADpHX1TcK9I5AAAgxklEQVR4Ae3dCdxl5fwA8KdNTVHaS5MmpaahbJMKMTO2QkSLncSMfQlJixqiJB8qU/Zkomil1CRFhbJrQ1mHClMUSpGl//s9/oc7b/fe8zznPOfed+a9v8/nfu77nnvOeZbf8/z23+9Z4S9/+cs9YQSTZgZWnDQjHQ20mIGVJ9I83HPPPeGf//xn+Nvf/hb++te/Fn+vuuqqYY011gi+V1pppYnU3WWyL0NH+K233hauv/66cO2114af/OQnYfHixeFf//pX+Mc//lF8r7zyymGVVVYpkL311lsHn+nTp4dtttkmrLnmmsvkpA+z0ysMi4dfddVV4Utf+lI477zzwu23317saLv6rrvu6jkfq6++erHb7fgHPvCB4UlPelJ42tOeFrbYYovR7u85a0v/MHCEX3nlleHYY48N3/jGN8LYYuuL4KW7uvR/K664YlhttdXClClTwjOe8Yzw1re+tVgEK6ywwtI3jv5bagYGhvAlS5aED33oQ+FTn/pUsaOX6kWmf4444ogwb968cJ/73CfTG5e/17SOcLzYrn73u98dvva1r7U+g7Nnzw5HH310eNCDHhTw/xEsPQOtIvzOO+8MX/ziFwtk33DDDUu33OJ/a6+9djj++OPDnDlzAr4/gv/NQGt6OGQvXHhyeOUrXxkGiWxDu+2228KrX/3q8PnPf7419vG/KVy2/moF4X//+9/DKaecEt72tv2HNht//vOfw5FHHhlOO+20YPGN4D8z0ArCzz777IKMD3uSf//73xcaAdWPbj+CELIj/Jvf/Gb4wAc+EG699dYJMb8MOR/72MfC97///QnRn2F3IivC//jHP4Zjjjkm/PznPx/2uJZq/+qrry5I++9+97ulrk/Gf7LqLfjld7/73cIGXmcy2cqnTZsWHv3oR4d11lmnMKrccccd4Q9/+ENhqEGi6wDr3emnnx4e+chHhr322qsw1dZ5z/LwTDaE/+xnPwvnnHNO+NOf/pQ8L2zlTKT77rtvYSNnPYN8VrN///vfBf8leP3whz8MH/3oR8Mll1yS3AbJ/dxzzw077rhjoaMnv2A5eSAbwr/85S+H6667rkBQytw84AEPKKxv22+//X+R3O35+9///mHjjTcODCsW1rve9a5w4403dru157VFixaF5z3veWGzzTabtLb3LDz8pptuKkguHh4LdvCTn/zk8PWvfz3stNNOhVWsyg7ud4aU5z73ueETn/hEePjDHx7Y1GMBtbDLsYjJCvGz1WeGeL5SBbXHP/7x4YQTTgjrr79+nzd3/wniH/OYx4R3vvOd4aEPfWgS0pl3yQJ875MRGiOcrfzb3/52+OlPfxo9f1ybhx56aNhggw2in+l2o0Xzile8Imy00Ubdfu567ZZbbgnf+973Cn971xuW84uNEY48pkjPfNmvf/3rC+GsioRXzT22sMsuu4THPvaxSR6y73znO+Huu++uev1y+XtjhEN2iq0c30WOczk17G5IT6EW11xzTRFwsVxitGJQjRHOmJGC8Jkztw+bbrppRbfSfp41a1bYZJNNoh/6xS9+MWmdKo0RTu+Olc65LadP3zrc7373i0ZOzI0EPwiP9X8zxExWSb0Rwkm6PGMEtxhgPYMcvDc3CG5ksImFFLkj9p3Lwn2NEA7RTJ+xAtB973vfbLx7/OQyyQpljgXxdJMRGiHchDFmxOq0jCRNJfNeSELOU96dYrDp1eayeL0RwpHmlIBB1KBfGHKTCSQ4Yi+xIOJ1MkJjhEsGoFvHgCgUQl4sRYh5Z3mPRIaUxTR16tTy0Un13QjhZorEzbERAzfffHP40Y9+lF0lspB++9vfRguPeD0BcjJCY4QzfKTowFycnC054bLLLisQHvtOAl5u1TC27WHflwXhKYYUdmxBEinkt98kCaW68MILk8y7M2bMCDSGyQiNEU6vTnFeUIc++clPFs4WEn4ToBbywwuIkHEaCzvssEOSsBn73mXhvsYIZ+x42MMelkzW5ZfxXNUFgh9q8elPfzrJtLvuuusGwRYp2kXdPnY+Z0GiRix8zNFkDhZKmssgIUvEy8yZM4sU3hTeLHRYaNN73/vewOSaAigDWcCzolFTKMXOO+8cSOgpOntK38p7IfhXv/pVkQZNUDU3rHuMVKXtglo7ZcrqYcsttyj8CxxL2267bTEfbfUvC8IJQWLF7DgScwzg4eLXIey4444rPGgxz9G1LRbI/uUvfxlt5SvfLXZuvfXWK//N/m3XSoMWNPmb3/ymSIKQBo39+IxXSRmArrji8oLilJZIziBRPYIuY/0DsQPJllsmFPh1r3tdkTgY23h5nx2+2267hZe//OWFn7ybUUQQo6REYdCkcgtm/OSV7+v1LdfsqKOOKooK9Lqn7nUL/SMf+UiR02ZR+qRQns52sRuqo9Cvt7/97QEFzQXZEK5DMkQ//OEP19azrWZZnwaI7EI8xNopEhxSgxY7J8lOklX6spe9LOuukdHyhS98ochPj/UadvYr5u/nP//54ZBDDinkpKYm4awIJ4y88IUvLMh06u6LGXjdeyykPfbYo5g0Eas5AHm+8cabCopx9tlnZVMze/WNrePwww8Pu+66a7Rls9u7VjrwwAPnd/uhzrXS6ibGTRmPiQB2xHbbbRfe8IY3FFGuOfpEILviiivGyO0BYdGi82snXqT0xXyicljFVlttVSC9jmCXFeEGoOBOOSETIYFPLPtrX/vaoixIDj88FiPyVWaq2LhBAjlGeBbkK2q01lprJTefHeF6QL2gb1KdhgmEwblz54Z99tknKTiiV5+pVOLoCX7DSk60w0UIYykPechDki2GrSCcfk3CJLkOC+k8eHa2mi+xzp1eiHadxM0jJxaeaXiYYOHJAyDUQno3raZX/1pBuMZ0gh654oorFfoyXXRQsOGGG44VI3hbIZHn8orJTRNLf/HFFw9qGH3bwVognRC65ZZbRoeNZZXSx/eQpF4m8UkCtEPahkc96lHh4IMPzhoKrc9y3hl7yCcTCSCbWii5IwZaRXjZAcIG8yIdXW4XPpQbkHD1ZKiFCvU11Vc7+yczVh5c0yIHEidZJcXQE7yosYvHChaYnyZg3BZjjFA6EIQbDB6IrJNwFyxYEH7wgx8km0W7TQpz5FOf+tSCX3N7cubUUVe6vbu89pznPCdcdNFF5b9J30ju3nvvXfTRLixrxqJ+6spCPBXvc5/7XKF2xQaEdnYC+9Q/6mcVDAzhnR2xw/FCni7uzTomSC7ZPffcs0j/hejcNueyvxam3U0qTgELUWryW97ylihPIlZR+giuv/76lKaKe7WltEkVDAXhnZ169rOfnSwIkboZUpTbbBMsRJL+qaeeGr0oURe6/3777VewmNT+/fjHPw4HHHBAsdtRgBS45pprx4S4/ry8sT88pUPd7q3Da01qnee6td/vGv6KEqVQIAEhihXgq3UAtVKiVIJkDE/ubOPUU0/p/Lfr30NHeNdeTZCLeCv1JwVe9apXFTw75Znx9xLsLBrCZwpwy1axnhHCe8woszCfQIoaxsKoAmQOeMQjHlEYjVLe9etf/7rwLPZ7ZoTwHrNDo6BKpkjN9P/YGP0ezS51mSCmwkUs2N1Vls0RwnvMJh1ZvFmsm1cyo7z3nCDJ4wUveEH0K1GlKuPWCOE9plOQYQr/fsITnpCUzNij2Xtdnj17zr2u9bpAqh8hvNfsVFxH0lPUIju8Dc1h6tRNCjWvorvFz3Z4VRr0aIf3mMkUZHsFQ1AbCBdUkhJ0WRWDMEJ4D4QTgFL07zaQrWtsDjlNxSOE90A4+3QKEiVVpCyQHs3e6zLBkccxFqoWx1AQbmIIRCYpRe0pB41sCa7wvPfEStLl8zHfqQjnUWsD4TfffEt0Zo0FytLXD7IkIvRroPM3yIUkBgKH0rFk0XVTwaoX6E9AkScm6kN4szSilF3Zr13vSikhIvQJ38+dwnTZZZf26+ZSv4k0Mhf9YCAIxw8hmeVK5KUzy8SYpwpG5UDsJM9zakD85ptvHp74xCcWYVXyxpom+6MYVaSx7Ev5LUnCIhaAkQtQL27TWGB7rzLUtIpwiKHPfuUrXyn8tRCdwo9iBmrRIKc+Z5xxRnFa4VOe8pSi6rJdmgqCHPjs2aWrVJzx7xbJ6qyXXLtcGjQqGAt2uMTOftCqe/SCCy4oJuDyyy8Pqj8MCgTtO6ZSfpactxhfuagTkagQ7ZNSbLBzXKo8C3hoCvLm1JGVrxcLQpelYfVjRa3scAKVc8PEWqmhPmiQqWmnieEWJPHiF7+4Zww38g25J5988lhSwaKCUqRY2MaP7X3ve18RwiQhsC5IWUIt5OulAMrWD9nelX2HK2spysPKHHYtNHwYWRdkIZCBYNcJ2IGom5NOOqmILbNQmwKhEVk97LDDioPyUt9nsb7nPe8JZ555ZpJpVzvIf5XQljVM+Vvf+lYR6eE7xa2YOikp9yPVhClCHvNnqbYQHgUp4PsEylyBlSgGTURoFORvtdXWUTydvIOlWCjnn39+8vw5cHfu3HmVWkq2HY5PS21VLL8NvTgFyd3uJcEiefzVjsck3QsgbKuvqAshyoE9r3nNa4La7t3OOy+FTizIribk1tHnL7300sCHXgWNEW7CqFt8wcPOyKga7DB/R1mobIRItnE2CcGK6tPUCVrsHIuTmgQwxoRENUK4lUgomz9/fiCRj2DwM0BGoUZOGwuLioFGplV6qqoHI2THTHX+e6RRKcIgSjYWaqtl/MX0VfwwByBHBsDNKEwI/6M/43HIH3MqCbbOuWg5+jfR3kEeeOlLX1qcBlGlinX2vRbCOS/oiIwMTS1nkEyNkSMlt1yyOzIlg8RASPv0YunH9Gr8TrosVpJDjeqcjGXlbxti9913Lw72S7Um1kI46RaymxhVIJPUzCLG/k1HrjoHxSF1dHvtEhQZSqgyTQwldZDMdErlGobqaWc/61nPKg4Kik0g7BxjstBGKsezFcepmwRnNyNHSmhBdIx02dlpf0MyxCv95WB4QYeDAPzyRS96UZFzznlTFUOWs092s6BGJldCWqqDR1+SEc7z9cxnPrPwetUZjF1KL33c4x7XOKTX4mOG/OpXv1pYpxTCawvIFHbWPmPVJBTPQ6GU/PjgBz9YOwkwpa9km4MOOqgo6iP/vS4kI1zqDecAxKcCFyZ9Hc82gbkAaeWJUyeO4SI3SP+Rx8Z4Qocufe4ESprKZz7zmSIjti1T8kte8pJiV5Nvqthe1diTEW6Fn3XWWVXvvdfvLE5UCN/lhN3rpgYXCJL0UY4SGkQuGKtyVVjnZIP28rpZcDfccOOYw2hBOPHEE3M1XaQYS5pksMmVBp2EcAXyqhzs3UYrR5qNmOeqbVBpQrmPuiZTfNGClCKsnktq+DF/umrRCxcu/K+ZVF/K/pTf5Txor/NDApePriolR0gd+aZ8d7fvJISr4CCVNQWQIFSBByh353v1o24CP75MNZQQSE5pUkSfM4ZPmxbBkcKGgN2QOUpbOYpB+CIIalfmig3VpN1ec1Jej0a4lUn3QzZjwcol4CBz+M+gQLEbwmGqnm7Clc6QFJgbIJlWYyHcfTf5554xL9qqY2W31qj0YefsS7RplYHFSk0BkZ/KcQwS2fpn19SJOqFf63MbgE2QA6hWG2+8UbGr1113nYEi27iiEU7fJJWmAHKuMOygAeuQednNHdmvL0uWLCl84/3uWdZ/i0Y4k2bJe2IHLcaKkWXQgJWwQlUF9I3vFwtiKhsY/46J/n80wkWNpO5wptNhAfIpZj0F8Fisqyo/K+WdE+3eaITb4akTEROB0daEMOyklsyAcFJ06sJuawxtvDca4fTLVJJOhx0W4OMK4DFYxAIJ+vbb70he2LHvnwj3RSM8FdkGlyo05ZwQfJwRI0XqpnrWGWfOfrf9rmiE1+mISR8WaJthI6fNflhjydluqwiv42DJNTg7lU09Nfx4iGs019D7vica4XZK6o5lex8WIM9UrBQ1C99nXm3DuTOseRjfbjTCSbyptvAmETHjO5r6P0mbISUFqHIEvV5esZR3TdR7oxHOuJ+K8BS7e+4J4rJMNQVzWjB9jhA+ho06CBdkP6woUwYU2TAp4NCYlAI6Ke+eKPdG7/AZM/hm02Ie8U8pMIMGAhtkyxlLAeS8TmBgShvDvjca4dOmbTaWcrtmUn9JydJwxZQPEvBvsWYpgF3JK3dqwfIM0dmj+BqHfgpfJCkzV06btnmYMWObgc2jiBMRpalAjVSLXYROisGmqh1zsGTJzUUQBKrDTC0YgrOG2miB0oJSZaSqdrv9Hh0A4WHVBaSlpoBBqP1txz34wQ9OebTWvYsXLy7aM5mpoK8kdYEQctzrnu5roat4gZ1hLVzLwqhl0GA3PlRc7VEBWQR5FcX7KeEptKlpsGKvsSch3ErVqVT92uD4xZ0M1NZADJBkvssuuyRRoW4TUyJDOLUUaIsgFhRCME5He5SmWt8+/UCbkO8bhRH375C9FF9Av/eXv0WTdA8gOyaV9J0KZcw4D1quojedfbCj3/jGNxZ9s4OagnfIblFFSUw4JJQ7svPdEFmqgBAkMlcqVLmTqxA9/l2eo2GItX//+99fGILYQHIZhJIQrnMEm89+9rPJJkvkjE/dpJVpRVZzU+CyRS4dIqemjHZygoUkYVI9OVI8Ho+/6zv+C7l2tCQBMk5usLlUwfpPaNTGjXd8MsKRN2k+SmakApYgW4P0LntCIqEFUBdI/0joEUccUZwI1GaOmcBIpw5JNtBvoBjf/vvvX6Retek3kEgJ8caL0rAX1DX/JvHwEjFWshhzk1AXCEYOlZNIqLAekhUDSKSFo3gQSx5qM2gTrqBM0TSK6DSZg5jxdt5jjmbNmlUsMqyxjiewFsLxLPr1O97xjtoJhQZCOt15552LMhgGgFfZPa6PJ/d2lpXumCdSLwqjxAjkTyagHtN6ZMQQoFPNwLUQboJVRZInJnuzKeCJdg1yxbSJX5HmDQaphFRqjvCjUodtk3w3HU/bz2ODs2fPCfPnH1YkLqSQ99oIZyywy6QQpRhjqiZD55EqH38TyghibfLIqj5NxN+Rd9kxjrsiSMdCstBWvhgyCF70RKW6cmVO4tElkknBEJ1DzSr7vbx8m6PFY0Ym7I+BKJafR9vSu00UZMvjYiQYZvxat75NhmtYnVMMsblYfb82Se+cUGqWnCw27EE7Sjr7EfO3E3hpGYPuJ9uDOH25djYKyiW3nPlV5comwqe8dTaIGAEuC8JNNMn98MMPL2qX5iLvMQiMuYfEj+QRMufNm1dI+vpKrUqNeYtpzz3apC+rYaNNWkgv1VOpTmVLpBgrA45cpwL1dLfddqt8rDYPH/9mq4uKRZijIw96B43vT/m/ftldhxxySFFXBs8j5KheyPetGpXdllMo1CZKwsz6pje9qdA++u0+faJiyXilifComccUQC0kUFYZsrIhXOc0Bulsz2zndZIXUgZZdS91j4FEgYA99thjqR1G6EReVVou7ddYU+pEj++D9+60006FHZznqwoBnc+zQUC6PjAmpaieSoCjJlWnQWRFeNl57j2It1rZogdN4pHTadOmhac//elFAQN9gYhuII5NgSGSrl2ur6hTXc3AzuYKTk1kLPuG7FukNou6dCkL0BhVxuoH2Xh4t0Yg+5xzzimMMw5BxavaBkVsCTH89oSklGoKJpmX6txzzy1s17xWKYA0K/CjeFFTYGhSnosNPRawKr4F/egFrSJco1YoqZijge2bscbOzw3KZiChdrMJrxuqZGfjocqKUnnwxlhQbWnBggWxt1feR4KPEcTKF1GNLVYCYi9oHeFlw6xlAieQKZY5kSDcpU2EOwPEh5WkRpINFKJ7ke+yLzHf+urMlJRjtngCRffmAixGHy666KKoV1L3HMGh6GEvSAtD7fWWiOuCHoTxkJjtRBUaCBrUI4sgBQxMlSUlutjfCYmQnwPRZT/42KmasWBM5IacQJXcZ6wgUizCqXNV56R0l2Ry9nrcuyCFNEqwg7Q6VQUJNoQiUqkdJSghJ7J1mWcuJZiCWpUikY+blp7/brdd/2OpOh/EPnkT+8HAEd7ZGRM03g3a+Xuvvz3j2TYmuGwTOY01V3omtZ5b2U7V9/rrrxdd2ID8UZVLN1SEVw12mL9DeIpqtvbaa9davFVj5CbuJ3WPf75qkY4QPn7G/v//0j3b4+d7XWYLr5rsez0UccE7UxZe1StHCO8xQ/1Mod0eERDSBsLl5qXYL6r6PUJ4N+yNXROsWTV5nY9S3+o4PTrf0e1vNoHYtGf9pbX0gxHCe8wOx0pK0gTDUhMXZ49uFKc+9Ppt/HUIZ9rtByOE95idDTbYsHBvxmoRdmLufHgWSW7TWKC1VFW7HiG8x2xOmbJaMXm9fNjdHpMpwh6fC5wrU2bsxLyToFnltBkhvMdM2i1MtilZpMKnjz322B5vTLvshAcBESlgd1edYTZCeJ8Z3WGHHZNTe5xW7PC+JmDhiEZNPc6Db7/K4jh0hNfRMXPrpr2QM3XqJkX576pJ7HweSefAOOqoo2pJ7QrqO19FkkWq1B/jWRsKwvnJ+Y0FHvA/pwLd9Jhjjim8QgSlO++8K/UVUfdDtNOIU0247PASDB1XvXgslDgGSPgLF55cRADzJKYi2/nonEhVMDD3KMO+1c9fC1mk2lzAU/XmN7+5OAxGwEOsZB3bPj+3qNA6wF0rlLs8o42nzwJCpcwJ27dFq2IF92odoD5Kba7Swb27dYQbmFgxHRL6o4pEW7DPmCtRhChHBok1F1icc+bMSbJ4dWtbNA4XMQ8hKsc9zO+e4obt9l4BmthADOtpFeGQLWLkjDPOKI6uTFExug0s5hp/+4EHOtBtl6zJEc7nloPehnElZly97uFmlr8udz0GWgliLBt2kg/yffzxxxfJgOX1Nr/FoZ1//nmFlcxuSinX0a9f3mU3kqAnCsi2PfLII4OTJ2J2t363hnD2X6rFSSedlDXmO2ayURbBfDQA5D0lkLHX+0XsmGBUahCUqlc/yutkA4fY7brrrkm2glYQbpepgnT66aeX/Rv4N3+2mDnIZ5BIsYt36yxBUKSOMCZBmfjvsIAMIKLVwbOifVIgO8KpE0pwMEAMG8oaLKxlziJrKsghmwQv0jB2hcQPGljSIJuAqi+pkB3hp512WjjuuOOynv+ZOqjO+2VvEBzxYCS5KfBIif8WSwfhsXp203Y9L6tE6hI1sW5N2KwIl1MmYW8i8LjOCcZiBCRyHSLLTYEezchBVUPqpeu2lZRY9hUrcRQont0kNTurWiaHCylPyYkqB+Rb7NbMmTOLjwH6n4tQ4Ryx7MyNdQE5Zu6Uy56zThwWxrZgoQuCIDPkBue9OiobopsalbLFpbMSySpJRTZEqOkCEao6CTzoZcoUguv0YMIgfTjFDu9e1jIFcap8xikI01cJgEzE+sUIgprY8SxpqQChXLI+Snog4TlLlmbZ4SRi+iAvUUomCcnZ2dhcinhsDGiL65BgqNRIqpWKfKEMaIqfO6Zf5T0QLXEA8vXPwvSxCPS9cxFALmpDLmByRdFEvzLD7rXX3mPlzKZF69dl+1XfWRBO/UF2LklIfKMbUyuc0V1HZdKmI6pVKUyhKmqxcmxUpdVWTVzV7xDLFsFQg9TLZCE8YlGlY4TWoB8kbwte2hTBMiUsuaof43/PQtLxV4JLCijsp85bHWRrh3VJFUS7R9Kd3RMDymuIMM2Vg9arzVKaJ9E7YRlYmD7Yi9298sqrjO3s1bLKFL36U15v7B7lGJHPZAXHgvxnh7I3tYDhxWV+WWzbXKvkjZQ0oth3V92HbNMSylp0a6215kCRrX+NES6POSUyg4DGcMDJ0VTiLAWmWbNmJUWmMLvGUoQqJC5rvzdGOL6ERMaC3S21N5fQxLSIZCLRsYAiDboqRWzf2r5v4AjfdtvtKgPtUgctcqYqeK/znezgWNFkhMYIN3Gxu4V1avr0rbNLoaRa9u1YgwpyjjJNRmiEcOqFyI1YtYilSO2ypry7G6KoNCkSP9ljMkJjhKdIu3YiSbUN4DlK8YalGmza6PMw3tkI4TrMNBq7Y+mfbdia9YOhI+XdKWZZ719eoBHC7SghRLG8k9m1LWGJhy5l12ItkxEaIdzOFlwQi3BmRTHbpWkx14TbrUyYsbKEdlnAJiM0QrgJYzmKjbxg5WJXrqpDkooIhh9269iFVDopUttZHu5vjHCqVoojgi07d2iQQH4hR7HAQdHUrBvb1kS7rzHCxUOnkEc7nFctxY3ab9JY+XjMUspiSKlNUeH6tb+s/dYY4RwBMTlN5cTgs4L6r7rq6qQAhvL5zm8qoaAG1RdSbOPSgGPljs72loe/GyOcpM4+7lSiWLArDz74oEahvlSwCy+8MJx44olJSfioUY4I1tixTrT7GiPcgDhDBPynwJVXXlmE2tZJKiScXXzxxWH+/PlFjHiK/i3wUFx3rO0gZUzLwr1ZEI6kK1kdK62bGKqUXGgm0TPPPDPKcOIZdnvRm/vuu+9/D3WNnWhGIlGfdUN8Y9uZyPdlCXEyQJK3HGX8NNWKxa/tSErHN4txozaJGAF2LyuayBaBguLmCH6pYEfvvvvuRUjVtLGI2MkKWUKcTJ5oU8dMiCxNkZg9i0RT13zsPkhHNSwEwhieLxQ4Vs/2zvFAmxAFuummm47/aVL9n22HmzUGFRUTLrjggqWiM4c9o1SwfcZSc/bbb79a1ZuH3f+c7Wfh4WWH2KdN6owZM8pLQ/9GJZS2Vp+9TqnuoQ8gcweyIlzf8GLRpBNlch1VPXfu3MoKhZnndcK+LjvCjVQg/aGHHpYtbq3u7Al7QnGcgUJCH0GGqNVuk8gYs9deexZndw3LhCm40cnHCuoMqw/d5mbY11pb9tymTso74YQTotOIck2GCNaPf/zjxSF0VLwR/G8GWkO4JoQzKRbHdi7hbhAgZJnJFRlvK5xqEONoq42salm/Tgp+gHjZnzkL0Ha2efTRR2dPB+58//Lw98AQXk6WJABkng9bQERKlEr5Dt+EMGwDr3YKobTaFL9857sm098DR3g5uVJpnf63aNGiItRZuLN4t34LgPAlhg5fZjFz1CSNgOpF3x5B9QwMDeFl1yBa5qmzSaUAq5nCds7XzY5uJ/Nds62rqyJr1EeSfJPSF2X7k+176AjvnPDSUWKn+3DC2LnItly00S7unK16f/8fEbaKROiIf5cAAAAASUVORK5CYII=;" vertex="1" parent="G5m2Z7axFYdHdQ9XGcFq-6">
          <mxGeometry x="54.99999999999994" y="49.99999999999996" width="35.43" height="50" as="geometry" />
        </mxCell>
        <mxCell id="G5m2Z7axFYdHdQ9XGcFq-12" value="" style="outlineConnect=0;dashed=0;verticalLabelPosition=bottom;verticalAlign=top;align=center;html=1;shape=mxgraph.aws3.machine_learning;fillColor=#2E73B8;gradientColor=none;" vertex="1" parent="1">
          <mxGeometry x="1053.61" y="577" width="72.39" height="88" as="geometry" />
        </mxCell>
      </root>
    </mxGraphModel>
  </diagram>
</mxfile>
